<?xml version="1.0" encoding="utf-8"?>
<!-- Generator: Adobe Illustrator 27.1.1, SVG Export Plug-In . SVG Version: 6.00 Build 0)  -->
<svg version="1.1" id="Ebene_1" xmlns="http://www.w3.org/2000/svg" xmlns:xlink="http://www.w3.org/1999/xlink" x="0px" y="0px"
	 viewBox="0 0 116 116" style="enable-background:new 0 0 116 116;" xml:space="preserve">
<style type="text/css">
	.st0{fill:#FF0000;}
	.st1{fill:#FFFFFF;}
</style>
<path class="st0" d="M82.8,53l4.2-2c0.1-1,0-2-0.1-3s-0.3-2-0.5-2.9L81.9,44c-0.3-0.8-0.8-1.6-1.3-2.3l1.6-4.4
	c-1.3-1.5-2.9-2.7-4.6-3.7l-4,2.4c-0.8-0.3-1.7-0.6-2.6-0.8L69,31c-1,0-1.9,0-3,0.1c-1,0.1-2,0.3-2.9,0.5L62,36.2
	c-0.8,0.3-1.6,0.8-2.3,1.3l-4.4-1.6c-1.5,1.3-2.7,2.9-3.7,4.6l2.4,4c-0.3,0.8-0.6,1.7-0.8,2.6L49,49c0,1,0,2,0.1,3s0.3,2,0.5,2.9
	l4.5,1.1c0.3,0.8,0.8,1.6,1.3,2.4l-1.5,4.4c1.3,1.5,2.9,2.7,4.6,3.7l4-2.4c0.8,0.3,1.7,0.6,2.6,0.8l2,4.2c1,0.1,2,0,3-0.1
	s2-0.3,2.9-0.5l1.1-4.5c0.8-0.4,1.6-0.8,2.3-1.3l4.4,1.6c1.5-1.3,2.7-2.9,3.7-4.6l-2.4-4C82.3,54.8,82.6,53.9,82.8,53L82.8,53z
	 M68.7,57.1c-3.9,0.4-7.4-2.4-7.8-6.4c-0.4-3.9,2.5-7.4,6.4-7.8c3.9-0.4,7.4,2.5,7.8,6.4S72.7,56.7,68.7,57.1L68.7,57.1z"/>
<g>
	<g>
		<path class="st1" d="M15.9,90.7l10-10l10-10c1.5,2.3,3.2,4.5,5.2,6.4s4.1,3.7,6.4,5.2l-10,10l-10,10c-1.6,1.6-3.7,2.4-5.8,2.4
			s-4.2-0.8-5.8-2.4s-2.4-3.7-2.4-5.8S14.3,92.3,15.9,90.7z"/>
		<path class="st1" d="M15.8,102.4c-1.6-1.6-2.5-3.7-2.5-5.9s0.9-4.4,2.5-5.9L36,70.3l0.2,0.2c1.5,2.3,3.2,4.4,5.1,6.4
			c1.9,1.9,4.1,3.7,6.4,5.1l0.2,0.2l-20.2,20.2c-1.6,1.6-3.7,2.5-5.9,2.5S17.4,104,15.8,102.4z M40.9,77.2c-1.9-1.9-3.6-4-5-6.2
			L16.1,90.8c-1.5,1.5-2.3,3.5-2.3,5.6s0.8,4.1,2.3,5.6s3.5,2.3,5.6,2.3s4.1-0.8,5.6-2.3l19.8-19.8C44.9,80.8,42.8,79.1,40.9,77.2
			L40.9,77.2z"/>
	</g>
	<g>
		<path class="st1" d="M44.9,73.2c5.9,5.9,14.1,9.6,23.1,9.6s17.2-3.7,23.1-9.6s9.6-14.1,9.6-23.1S97.1,32.9,91.2,27
			S77.1,17.4,68,17.4S50.8,21.1,44.9,27s-9.6,14.1-9.6,23.1S39,67.3,44.9,73.2z M50.7,67.5c-4.4-4.4-7.2-10.6-7.2-17.3
			s2.8-12.9,7.2-17.3s10.6-7.2,17.3-7.2s12.9,2.8,17.3,7.2s7.2,10.6,7.2,17.3S89.8,63,85.4,67.5s-10.6,7.2-17.3,7.2
			C61.3,74.6,55.2,71.9,50.7,67.5z"/>
		<path class="st1" d="M44.8,73.4c-6.2-6.2-9.7-14.5-9.7-23.3s3.4-17.1,9.7-23.3s14.5-9.6,23.3-9.6s17.1,3.4,23.3,9.6
			s9.7,14.5,9.7,23.3s-3.4,17.1-9.7,23.3s-14.5,9.7-23.3,9.7S51,79.6,44.8,73.4z M45.1,27.2c-6.1,6.1-9.5,14.3-9.5,23
			s3.4,16.8,9.5,23c6.1,6.1,14.3,9.5,23,9.5s16.8-3.4,23-9.5c6.1-6.1,9.5-14.3,9.5-23s-3.4-16.8-9.5-23c-6.1-6.1-14.3-9.5-23-9.5
			S51.2,21,45.1,27.2z M50.5,67.6c-4.7-4.7-7.3-10.9-7.3-17.5s2.6-12.8,7.3-17.5s10.9-7.3,17.5-7.3s12.8,2.6,17.5,7.3
			s7.3,10.9,7.3,17.5s-2.6,12.8-7.3,17.5S74.6,74.9,68,74.9S55.2,72.3,50.5,67.6z M50.9,32.9c-4.6,4.6-7.1,10.7-7.1,17.2
			s2.5,12.6,7.1,17.2s10.7,7.1,17.2,7.1s12.6-2.5,17.2-7.1s7.1-10.7,7.1-17.2s-2.5-12.6-7.1-17.2s-10.7-7.1-17.2-7.1
			S55.5,28.4,50.9,32.9z"/>
	</g>
</g>
</svg>
