<?xml version="1.0" encoding="UTF-8"?><svg id="Ebene_1" xmlns="http://www.w3.org/2000/svg" width="116" height="116" viewBox="0 0 116 116"><path d="m82.76,53.02l4.2-1.99c.05-.98.03-1.96-.07-2.96-.1-1-.28-1.97-.53-2.91l-4.52-1.1c-.35-.83-.77-1.6-1.27-2.35l1.55-4.37c-1.32-1.48-2.86-2.74-4.58-3.74l-3.96,2.42c-.83-.34-1.68-.6-2.56-.77l-2-4.2c-.97-.05-1.95-.03-2.96.08-1,.1-1.97.28-2.91.53l-1.11,4.52c-.83.35-1.61.78-2.35,1.28l-4.38-1.56c-1.48,1.32-2.74,2.88-3.72,4.59l2.41,3.96c-.33.83-.59,1.68-.77,2.56l-4.2,2c-.05.97-.03,1.96.07,2.96.1,1,.28,1.96.53,2.91l4.51,1.09c.35.83.78,1.61,1.27,2.36l-1.55,4.37c1.32,1.48,2.86,2.73,4.58,3.74l3.97-2.42c.82.32,1.68.59,2.56.77l2,4.2c.97.05,1.96.03,2.96-.08,1-.1,1.97-.28,2.91-.53l1.1-4.52c.83-.36,1.61-.79,2.35-1.28l4.37,1.56c1.48-1.34,2.73-2.88,3.72-4.59l-2.41-3.96c.33-.83.59-1.69.76-2.57Zm-14.03,4.09c-3.92.4-7.44-2.44-7.85-6.37-.4-3.93,2.46-7.44,6.38-7.85,3.92-.4,7.44,2.45,7.84,6.38.4,3.93-2.45,7.43-6.38,7.83Z" fill="red"/><g><g><path d="m15.92,90.68l10.01-10.01,10.01-10.01c1.49,2.32,3.22,4.46,5.16,6.4,1.94,1.94,4.08,3.67,6.4,5.16l-10.01,10.01-10.01,10.01c-1.6,1.6-3.69,2.4-5.78,2.4-2.09,0-4.19-.8-5.78-2.4-1.6-1.59-2.4-3.69-2.4-5.78s.8-4.19,2.4-5.78Z" fill="#7186b9"/><path d="m15.76,102.41c-1.59-1.59-2.47-3.7-2.47-5.95s.88-4.36,2.47-5.95l20.22-20.22.16.25c1.48,2.29,3.2,4.44,5.13,6.36,1.93,1.93,4.07,3.65,6.36,5.13l.25.16-20.22,20.22c-1.59,1.59-3.7,2.47-5.95,2.47-2.25,0-4.36-.88-5.95-2.47Zm25.18-25.18c-1.88-1.88-3.57-3.97-5.03-6.19l-19.81,19.81c-1.5,1.5-2.33,3.49-2.33,5.62s.83,4.11,2.33,5.61c1.5,1.5,3.49,2.33,5.61,2.33,2.12,0,4.12-.83,5.62-2.33l19.81-19.81c-2.23-1.46-4.31-3.15-6.19-5.03Z" fill="#7186b9"/></g><g><path d="m44.92,73.25c5.92,5.92,14.1,9.58,23.13,9.58,9.03,0,17.21-3.66,23.13-9.58,5.92-5.92,9.58-14.1,9.58-23.13,0-9.03-3.66-17.21-9.58-23.13s-14.1-9.58-23.13-9.58c-9.03,0-17.21,3.66-23.13,9.58-5.92,5.92-9.58,14.1-9.58,23.13,0,9.03,3.66,17.21,9.58,23.13Zm5.79-5.79c-4.44-4.44-7.19-10.58-7.19-17.34s2.75-12.9,7.19-17.34c4.44-4.44,10.58-7.19,17.34-7.19s12.9,2.75,17.34,7.19c4.44,4.44,7.19,10.58,7.19,17.34s-2.75,12.9-7.19,17.34c-4.44,4.44-10.58,7.19-17.34,7.19-6.76,0-12.9-2.75-17.34-7.19Z" fill="#7186b9"/><path d="m44.75,73.42c-6.22-6.22-9.65-14.5-9.65-23.3,0-8.8,3.43-17.08,9.65-23.3,6.22-6.22,14.5-9.65,23.3-9.65,8.8,0,17.08,3.43,23.3,9.65,6.22,6.22,9.65,14.5,9.65,23.3s-3.43,17.08-9.65,23.3c-6.22,6.22-14.5,9.65-23.3,9.65-8.8,0-17.08-3.43-23.3-9.65Zm.34-46.26c-6.13,6.13-9.51,14.29-9.51,22.96s3.38,16.83,9.51,22.96c6.13,6.13,14.29,9.51,22.96,9.51,8.67,0,16.83-3.38,22.96-9.51,6.13-6.13,9.51-14.29,9.51-22.96,0-8.67-3.38-16.83-9.51-22.96-6.13-6.13-14.29-9.51-22.96-9.51-8.67,0-16.83,3.38-22.96,9.51Zm5.45,40.47c-4.68-4.68-7.26-10.9-7.26-17.51,0-6.61,2.58-12.83,7.26-17.51,4.68-4.68,10.9-7.26,17.51-7.26s12.83,2.58,17.51,7.26c4.68,4.68,7.26,10.9,7.26,17.51,0,6.61-2.58,12.83-7.26,17.51-4.68,4.68-10.9,7.26-17.51,7.26-6.61,0-12.82-2.58-17.51-7.26Zm.34-34.68c-4.59,4.59-7.12,10.69-7.12,17.17,0,6.48,2.53,12.58,7.12,17.17,4.59,4.59,10.69,7.12,17.17,7.12,6.48,0,12.58-2.53,17.17-7.12,4.59-4.59,7.12-10.69,7.12-17.17s-2.53-12.58-7.12-17.17c-4.59-4.59-10.69-7.12-17.17-7.12s-12.58,2.53-17.17,7.12Z" fill="#7186b9"/></g></g></svg>