<?xml version="1.0" encoding="UTF-8"?><svg id="Ebene_1" xmlns="http://www.w3.org/2000/svg" width="116" height="116" viewBox="0 0 116 116"><g id="icon"><path d="m48.54,66.01c-.98.34-1.99.56-3.07.56-.04,0-.08,0-.13,0-.62,0-1.23-.08-1.83-.2l-22.64,22.64c-1.62,1.62-2.49,3.78-2.46,6.07.03,2.29.97,4.42,2.65,5.99,3.27,3.08,8.65,2.87,11.98-.47l1.8-1.8-4.39-4.39c-1.23-1.23-1.91-2.86-1.91-4.6s.68-3.37,1.91-4.6l.89-.89c2.14-2.14,5.66-2.41,8.16-.83.21-1.36.82-2.61,1.81-3.6l.89-.89c1.92-1.92,4.75-2.38,7.11-1.4.16-1.42.75-2.79,1.83-3.87l.89-.89c.12-.12.26-.2.38-.31-.65-.33-1.27-.73-1.81-1.28-1.44-1.44-2.12-3.35-2.07-5.24Zm-21.43,31.44c-.77.77-2.02.77-2.8,0-.77-.77-.77-2.02,0-2.8.77-.77,2.02-.77,2.8,0,.77.77.77,2.02,0,2.8Z" fill="#7186b9"/><path d="m56.76,93.55c.67-.67,1.04-1.56,1.04-2.51s-.37-1.83-1.04-2.5l-2.8-2.8-2.8-2.8s0,0,0,0l-1.83-1.83c-.69-.69-1.6-1.03-2.51-1.03s-1.81.35-2.5,1.03l-.89.89h0c-.67.67-1.04,1.56-1.04,2.51s.37,1.83,1.04,2.5l7.44,7.44c1.38,1.38,3.63,1.38,5.01,0l.89-.89Z" fill="#7186b9"/><path d="m64.57,80.36l-5.42-5.42c-.67-.67-1.56-1.04-2.5-1.04s-1.84.37-2.51,1.04l-.89.89c-1.38,1.38-1.38,3.62,0,5l2.81,2.81,4.64,4.64c1.34,1.34,3.67,1.34,5.01,0l.89-.89c1.38-1.38,1.38-3.62,0-5.01l-2.01-2.01s0,0,0,0Z" fill="#7186b9"/><path d="m45.9,98.86c.67-.67,1.04-1.56,1.04-2.5s-.37-1.84-1.04-2.51l-7.44-7.44c-.67-.67-1.56-1.04-2.51-1.04s-1.83.37-2.5,1.04l-.89.89c-.67.67-1.04,1.56-1.04,2.5s.37,1.84,1.04,2.51l7.44,7.44c1.38,1.38,3.62,1.38,5.01,0l.89-.89Z" fill="#7186b9"/><path d="m51.27,42.3c-.5-.5-1.24-.65-1.9-.4l-1.23.48c-4.88,1.92-10.43.76-14.14-2.95l-.08-.08-2.73,2.73-18.89,18.89,5.5,5.5s.8,6.8,5.82,15.62l16.74-16.74c-3.49-1.59-6-4.19-6.15-4.35l2.15-2.04s4.44,4.59,9.05,4.64c1.84.1,3.45-.68,4.91-2.14l.03.03c.1-.11.17-.23.27-.33l5.7-5.7,2.1,2.1-5.7,5.7c-1.63,1.63-1.63,4.27,0,5.9,1.63,1.63,4.27,1.63,5.9,0l8.51-8.51c.69-.69.69-1.81,0-2.51l-15.85-15.85Z" fill="#7186b9"/><path d="m100.34,35.31c-.2-.59-.97-.75-1.41-.31l-11.71,11.71c-1.01,1.01-2.65,1.01-3.66,0l-8.48-8.48c-1.01-1.01-1.01-2.65,0-3.66,0,0,2.4-2.4,5.03-5.03,3.18-3.18,6.68-6.68,6.68-6.68.44-.44.28-1.21-.31-1.41-7.76-2.64-16.69-.87-22.88,5.32-4.15,4.15-6.31,9.53-6.49,14.96-.01.33-.01.67-.01,1,0,.41.02.82.03,1.23l12.09,12.09c1.85,1.85,1.85,4.85,0,6.7l-1.04,1.04,1.9,1.9c1.31-1.31,2.12-2.12,2.16-2.16,2.21.75,4.51,1.14,6.82,1.17,5.77.07,11.56-2.1,15.96-6.51,6.19-6.19,7.96-15.12,5.32-22.88Z" fill="#7186b9"/><path d="m60.7,71.26c-.18.18-.38.31-.58.47l1.12,1.12,5.43,5.43c1.63,1.62,4.27,1.62,5.89,0,1.63-1.63,1.63-4.27,0-5.9l-6.49-6.49-5.37,5.37Z" fill="#7186b9"/></g><g><path d="m89.87,52.56c-.31,0-.62,0-.93-.02l-.68-.03-1.86-3.9c-.46-.12-.93-.26-1.39-.42l-3.68,2.25-.59-.34c-1.67-.98-3.15-2.19-4.4-3.59l-.45-.5,1.44-4.04c-.26-.42-.49-.86-.7-1.29l-4.18-1.01-.17-.65c-.25-.94-.42-1.85-.51-2.8-.1-.94-.12-1.9-.07-2.84l.04-.67,3.88-1.85c.11-.47.25-.93.42-1.4l-2.23-3.67.34-.58c.95-1.65,2.16-3.14,3.58-4.41l.5-.45,4.05,1.45c.42-.26.85-.5,1.29-.7l1.02-4.18.66-.17c.91-.24,1.85-.41,2.79-.51.62-.06,1.26-.1,1.89-.1.31,0,.63,0,.94.02l.68.03,1.85,3.89c.46.11.94.25,1.41.42l3.67-2.24.59.34c1.65.96,3.13,2.17,4.4,3.59l.45.5-1.44,4.04c.26.42.49.85.7,1.29l4.18,1.02.17.65c.24.91.42,1.85.51,2.8.1.95.12,1.88.07,2.84l-.04.67-3.88,1.84c-.11.46-.25.94-.42,1.41l2.23,3.67-.34.58c-.94,1.63-2.14,3.12-3.58,4.41l-.5.46-4.06-1.45c-.43.26-.85.49-1.28.7l-1.02,4.19-.66.17c-.92.24-1.85.41-2.79.51-.63.06-1.27.1-1.9.1Zm.04-23.53c-.18,0-.36,0-.55.03-2.91.3-5.03,2.91-4.73,5.82.28,2.71,2.54,4.75,5.26,4.75.18,0,.37,0,.55-.03,1.41-.14,2.67-.83,3.57-1.92.89-1.1,1.3-2.48,1.16-3.88-.28-2.71-2.54-4.76-5.26-4.76Z" fill="red"/><path d="m89.93,17.23c.3,0,.59,0,.88.02l1.8,3.78c.79.15,1.56.39,2.31.69l3.57-2.18c1.55.9,2.94,2.03,4.12,3.37l-1.4,3.93c.45.67.83,1.37,1.14,2.11l4.07.99c.23.85.39,1.72.48,2.62.09.9.11,1.78.06,2.67l-3.78,1.79c-.15.79-.39,1.57-.69,2.31l2.17,3.57c-.89,1.55-2.02,2.93-3.35,4.13l-3.94-1.41c-.67.44-1.37.83-2.12,1.15l-.99,4.07c-.85.22-1.72.38-2.62.48-.6.06-1.19.09-1.78.09-.3,0-.59,0-.88-.02l-1.8-3.78c-.79-.16-1.56-.4-2.3-.69l-3.57,2.18c-1.55-.91-2.94-2.03-4.13-3.36l1.4-3.93c-.45-.67-.83-1.38-1.15-2.12l-4.06-.99c-.23-.86-.39-1.72-.48-2.62-.09-.9-.11-1.79-.06-2.67l3.78-1.8c.15-.79.39-1.56.69-2.3l-2.17-3.57c.89-1.55,2.02-2.94,3.35-4.13l3.94,1.41c.67-.45,1.37-.84,2.11-1.15l1-4.07c.84-.22,1.72-.38,2.62-.47.6-.06,1.19-.09,1.78-.09m-.04,23.52c.22,0,.44-.01.67-.03,3.53-.36,6.11-3.52,5.74-7.05-.34-3.31-3.14-5.78-6.39-5.78-.22,0-.44.01-.67.03-3.53.36-6.11,3.53-5.75,7.06.34,3.31,3.14,5.77,6.4,5.77m.04-25.8c-.67,0-1.35.03-2.01.1-1,.1-1.99.28-2.96.54l-1.31.34-.32,1.32-.74,3.02c-.14.07-.29.15-.43.23l-2.91-1.04-1.27-.45-1.01.9c-1.51,1.35-2.79,2.93-3.81,4.69l-.67,1.17.7,1.15,1.6,2.64c-.05.16-.1.31-.14.47l-2.8,1.34-1.22.58-.07,1.35c-.05,1-.03,2.02.07,3.02.1,1.01.28,1.98.54,2.97l.35,1.31,1.32.32,3.01.73c.08.15.15.29.23.43l-1.03,2.91-.45,1.27.9,1c1.33,1.49,2.9,2.78,4.67,3.81l1.17.69,1.16-.71,2.65-1.62c.15.05.3.09.45.14l1.34,2.81.58,1.22,1.35.07c.33.02.66.02.99.02.67,0,1.35-.03,2.01-.1.99-.1,1.99-.28,2.96-.54l1.31-.34.32-1.32.74-3.02c.14-.07.28-.15.42-.23l2.92,1.04,1.28.46,1.01-.91c1.52-1.38,2.8-2.95,3.8-4.69l.67-1.17-.7-1.15-1.61-2.64c.05-.16.1-.31.14-.47l2.8-1.33,1.22-.58.07-1.35c.06-1.02.03-2.01-.07-3.02-.1-1.01-.29-2.01-.55-2.98l-.35-1.3-1.31-.32-3.01-.74c-.07-.14-.15-.29-.23-.43l1.03-2.91.45-1.27-.9-1c-1.35-1.52-2.93-2.8-4.68-3.82l-1.17-.68-1.15.71-2.64,1.61c-.16-.05-.31-.1-.47-.14l-1.34-2.8-.58-1.22-1.35-.07c-.33-.02-.66-.02-1-.02h0Zm-.04,23.52c-2.14,0-3.92-1.6-4.13-3.73-.24-2.29,1.43-4.34,3.72-4.57.14-.01.29-.02.43-.02,2.14,0,3.91,1.61,4.13,3.74.11,1.11-.21,2.19-.91,3.05-.7.86-1.7,1.4-2.8,1.51-.15.01-.29.02-.44.02h0Z" fill="#fff"/></g></svg>