<?xml version="1.0" encoding="UTF-8"?><svg id="Ebene_1" xmlns="http://www.w3.org/2000/svg" width="116" height="116" viewBox="0 0 116 116"><g id="lyszqq.tif"><path d="m54.31,57.24c1.52-4.57,2.84-4.43,4.25-4.88.29-.09.67-.4.73-.67.41-1.87.86-3.75,1.07-5.65.23-2.07-.22-4.1-.89-6.07-.21-.62-.53-.78-1.14-.72-2.65.25-5.28.15-7.84-.65-3.38-1.05-6.15-2.85-7.33-6.4-.88-2.66-1.25-5.43-1.08-8.22.23-3.75.63-7.49.96-11.23.07-.75.5-1.11,1.23-.91,3.46.94,6.88,2,9.96,3.91,3.01,1.87,4.77,4.64,5.68,8.01.99,3.67,1.55,7.41.78,11.14-.44,2.11.34,3.72,1.24,5.59.2-.26.36-.42.47-.61.97-1.68,1.89-3.39,2.92-5.03.39-.63.51-1.08.28-1.86-1.6-5.33-.57-10.01,3.59-13.88,2.56-2.39,5.62-3.88,8.89-4.91,3.58-1.12,7.18-2.24,10.85-2.95,3.53-.68,7.16-.87,10.75-1.22,1-.1,1.34.25,1.23,1.27-.17,1.53-.42,3.07-.75,4.57-.82,3.67-1.95,7.25-3.72,10.58-2.19,4.13-4.72,8.01-8.73,10.67-2.44,1.62-5.14,2.6-8.03,2.82-2.97.23-5.96.26-8.94.32-.76.02-1.52-.17-2.44-.28,6.04-8.49,13.35-15.54,21.1-22.18-.07-.09-.14-.18-.21-.27-.33.19-.66.36-.97.56-4.63,3.06-8.99,6.46-12.97,10.32-2.34,2.27-4.54,4.69-6.8,7.05-2.26,2.36-3.39,5.28-4.03,8.41-.7,3.45-.3,9.92-.96,13.37" fill="#7186b9"/></g><path d="m74.54,88.97l6.24-1.23c.4-1.29.7-2.59.9-3.95.2-1.36.29-2.71.27-4.04l-5.62-2.99c-.18-1.22-.49-2.39-.9-3.54l3.53-5.27c-1.25-2.41-2.88-4.6-4.82-6.5l-6.07,1.88c-.99-.72-2.03-1.36-3.14-1.89l-1.24-6.24c-1.27-.39-2.58-.69-3.95-.89-1.35-.2-2.71-.29-4.03-.28l-2.99,5.62c-1.22.18-2.4.49-3.54.9l-5.28-3.55c-2.41,1.26-4.6,2.89-6.49,4.84l1.86,6.06c-.72.99-1.35,2.02-1.88,3.14l-6.24,1.24c-.4,1.27-.7,2.59-.9,3.95-.2,1.36-.29,2.7-.27,4.04l5.62,2.97c.18,1.22.49,2.4.89,3.56l-3.53,5.27c1.25,2.41,2.88,4.59,4.82,6.5l6.07-1.88c.98.71,2.02,1.35,3.13,1.88l1.24,6.24c1.26.39,2.59.69,3.94.89,1.36.2,2.7.29,4.04.28l2.98-5.62c1.22-.2,2.4-.51,3.55-.9l5.27,3.54c2.41-1.27,4.59-2.89,6.48-4.84l-1.86-6.06c.72-.99,1.36-2.04,1.88-3.15Zm-19.99.71c-5.34-.78-9.05-5.74-8.26-11.09.79-5.35,5.77-9.04,11.1-8.26,5.34.79,9.04,5.76,8.25,11.1-.79,5.35-5.76,9.03-11.09,8.24Z" fill="red"/></svg>