<?xml version="1.0" encoding="UTF-8"?><svg id="Ebene_1" xmlns="http://www.w3.org/2000/svg" width="116" height="116" viewBox="0 0 116 116"><path d="m58.79,80.76c.16-1.1.25-2.23.25-3.38s-.09-2.26-.25-3.35l-4.99-1.78c-.32-.98-.71-1.92-1.18-2.81l2.28-4.78c-1.33-1.82-2.94-3.43-4.75-4.75l-4.78,2.28c-.9-.48-1.84-.88-2.82-1.19l-1.77-4.99c-1.09-.15-2.21-.25-3.36-.25s-2.26.09-3.36.25l-1.77,4.99c-.98.31-1.92.71-2.81,1.19l-4.78-2.28c-1.82,1.33-3.42,2.94-4.75,4.75l2.27,4.78c-.46.89-.85,1.83-1.17,2.81l-4.99,1.78c-.16,1.09-.26,2.22-.26,3.35s.1,2.28.26,3.38l4.99,1.76c.32.98.71,1.92,1.17,2.81l-2.27,4.78c1.33,1.82,2.94,3.43,4.75,4.75l4.78-2.27c.9.46,1.84.86,2.81,1.17l1.77,4.97c1.1.17,2.22.26,3.36.26s2.26-.09,3.36-.26l1.77-4.97c.99-.31,1.93-.71,2.82-1.17l4.79,2.27c1.81-1.33,3.42-2.94,4.75-4.75l-2.28-4.78c.47-.89.86-1.83,1.18-2.81l4.99-1.76Zm-21.37,4.77c-4.49,0-8.14-3.63-8.14-8.13s3.65-8.14,8.14-8.14,8.14,3.65,8.14,8.14-3.65,8.13-8.14,8.13Z" fill="red"/><path d="m105.29,57.89c.22-1.4.33-2.8.33-4.24s-.11-2.86-.33-4.24l-6.29-2.24c-.37-1.24-.87-2.41-1.47-3.54l2.86-6.02c-1.67-2.31-3.69-4.34-6-6.02l-6.02,2.88c-1.14-.6-2.32-1.11-3.55-1.48l-2.24-6.29c-1.38-.21-2.79-.33-4.24-.33s-2.86.11-4.23.33l-2.24,6.29c-1.24.37-2.41.88-3.54,1.48l-6.02-2.88c-2.31,1.68-4.33,3.71-6,6.02l2.86,6.02c-.6,1.14-1.1,2.31-1.47,3.54l-6.29,2.24c-.22,1.38-.33,2.8-.33,4.24s.11,2.84.33,4.24l6.29,2.23c.37,1.24.87,2.42,1.47,3.56l-2.86,6.02c1.67,2.31,3.69,4.32,6,6.02l6.02-2.88c1.13.59,2.31,1.09,3.54,1.48l2.24,6.29c1.37.21,2.8.33,4.23.33s2.85-.11,4.24-.33l2.24-6.29c1.24-.39,2.42-.89,3.55-1.48l6.02,2.88c2.31-1.69,4.33-3.71,6-6.02l-2.86-6.02c.6-1.14,1.1-2.32,1.47-3.56l6.29-2.23Zm-26.95,6.02c-5.67,0-10.28-4.59-10.28-10.26s4.61-10.28,10.28-10.28,10.27,4.6,10.27,10.28-4.6,10.26-10.27,10.26Z" fill="#7186b9"/><path d="m39.04,44.25l3.41-1.62c.04-.8.03-1.59-.06-2.41-.08-.81-.23-1.6-.43-2.37l-3.67-.9c-.28-.67-.63-1.3-1.03-1.91l1.26-3.55c-1.07-1.2-2.33-2.23-3.72-3.04l-3.22,1.97c-.67-.27-1.37-.49-2.08-.63l-1.63-3.41c-.79-.04-1.59-.02-2.4.06-.81.08-1.6.23-2.36.43l-.9,3.67c-.67.28-1.31.63-1.91,1.04l-3.56-1.27c-1.2,1.08-2.22,2.34-3.03,3.73l1.96,3.22c-.27.68-.48,1.36-.62,2.08l-3.41,1.63c-.04.79-.03,1.59.06,2.41.08.81.23,1.59.43,2.37l3.67.89c.28.67.63,1.31,1.03,1.92l-1.26,3.55c1.07,1.2,2.33,2.22,3.72,3.04l3.22-1.97c.67.26,1.36.48,2.08.63l1.63,3.41c.78.04,1.59.02,2.4-.06.81-.08,1.6-.23,2.37-.43l.9-3.67c.67-.29,1.31-.64,1.91-1.04l3.55,1.27c1.2-1.09,2.22-2.34,3.03-3.73l-1.96-3.22c.27-.68.48-1.37.62-2.09Zm-11.4,3.33c-3.19.33-6.05-1.98-6.38-5.18-.33-3.19,2-6.05,5.19-6.38,3.19-.33,6.04,1.99,6.37,5.19.33,3.19-1.99,6.04-5.18,6.37Z" fill="#7186b9"/></svg>