<?xml version="1.0" encoding="UTF-8"?><svg id="Ebene_1" xmlns="http://www.w3.org/2000/svg" width="229" height="433" viewBox="0 0 229 433"><path d="m19.4,40.27c-.41.88-.61,1.84-.61,2.94,0,2.83,1.66,5.41,4.2,6.64.25-3.83,2.61-7.22,6.1-8.71.02,0,.03-.03.05-.04l.45-.17c.28-.11.6.03.7.31.1.27-.02.56-.28.68,0,0,0,.01,0,.02-3.54,1.25-5.91,4.66-5.96,8.47,0,.18,0,.36,0,.55,0,.16.01.33.03.51,0,.02,0,.05,0,.07.05.52.13,1.09.27,1.7,1.07,4.22,4.67,7.25,8.93,7.65.31.03.63.04.94.04.34,0,.68-.02,1.02-.05l.69-.07-.87,6.2h6.35v-.44c0-5.4,4.98-9.82,9.49-10.38.04-.02.09-.05.13-.07.21.01.42.02.63.02.06,0,.12,0,.18,0,.16,0,.32,0,.49-.01.37-.02.75-.06,1.13-.12,2.41-.39,4.47-1.49,5.87-2.97.55-.63,1.03-1.34,1.43-2.15.44-1,.61-2.08.43-3.16-.37-2.32-2.2-4.13-4.69-5,0-.12,0-.25.04-.38.08-.25.24-.46.45-.6,2.78,1.03,4.84,3.12,5.27,5.8.11.69.1,1.38,0,2.05.66-.08,1.24-.2,1.75-.37l.12-.04h.12c.6.08,1.23.14,1.79.14,5.59,0,10.14-4.55,10.14-10.14,0-2.39-.84-4.68-2.33-6.46-.51,3.47-3.34,6.13-6.78,6.17.68.9,1.31,2.29,1.07,4.19-.04.28-.27.48-.54.48-.02,0-.04,0-.07,0-.3-.04-.51-.31-.47-.61.37-2.9-1.78-4.34-1.87-4.4-.25-.16-.33-.5-.16-.75.16-.25.5-.33.75-.17,0,0,.04.02.07.05.38.08.76.13,1.16.13,3.22,0,5.84-2.78,5.84-6.19,0-.2,0-.41-.03-.61,0-.09-.02-.17-.03-.26-.01-.09-.02-.18-.04-.27-.16-.77-.44-1.5-.82-2.18-.67-1.21-1.64-2.22-2.84-2.88l-.47-.24h0c-.06-.03-.15-.06-.24-.13h0c-.08-.03-.17-.05-.27-.1l-.07-.04s-.1-.03-.15-.05c-.09-.01-.15-.04-.2-.05h-.13l-.12-.06c-.05-.03-.14-.07-.15-.07-.16,0-.27-.04-.33-.07-.13,0-.25-.03-.33-.05-.02,0-.05-.01-.07-.02h-.9l-.04-.07-.12-.19c-1.14-1.86-3.14-2.98-5.34-2.98-.53,0-1.02.06-1.6.18l-.32.07-.21-.24c-1.65-1.89-4.08-2.98-6.65-2.98-1.32,0-2.56.25-3.67.75l-.28.13-.25-.18c-1-.7-2.27-1.09-3.58-1.09-1.24,0-2.5.39-3.62,1.09,2.07,1.15,3.52,3.49,3.62,6.2,0,0,0,0,0,0,0,.19,0,.37,0,.39-.02.29-.26.5-.54.5h-.04c-.3-.02-.52-.29-.5-.58,0-.08,0-.26,0-.37,0-.03,0-.07,0-.1-.19-2.99-2.26-5.4-4.88-5.71-.07,0-.14,0-.21-.01-.05,0-.11,0-.17-.01-.15-.01-.3-.03-.44-.03-2.39,0-4.61,1.38-5.65,3.52l-.14.28h-.16s-.15.03-.15.03c-3.8.3-7,3.3-7.62,7.13l-.05.29-.27.12c-2.45,1.1-4.03,3.55-4.03,6.23,0,.89.21,1.87.62,2.9l.09.22-.1.21Zm37.32-11.29c.27-.15.6-.05.74.21,0,.02,1.08,1.93,3.26,2.6.02,0,2.25.82,4.57-.5.26-.15.6-.06.75.2.15.26.06.6-.2.75-1.24.71-2.45.9-3.41.9-1.19,0-2.01-.3-2.05-.32-2.56-.79-3.81-3.01-3.86-3.11-.15-.27-.05-.6.21-.74Zm-4.78,14.19c.33-2.32,2.42-3.69,2.5-3.75.25-.16.59-.09.75.16.16.25.09.59-.16.75-.02.01-1.76,1.17-2.02,2.99-.27,1.83.54,2.98.58,3.03.18.24.13.58-.12.76-.1.07-.21.11-.32.11-.17,0-.33-.08-.44-.22-.04-.06-1.11-1.54-.78-3.83Zm-7.86,1.51c-.01.3-.26.53-.57.52-.02,0-2.36-.07-3.83,2.09,0,0-.75.96-.75,2.52,0,.3-.24.55-.55.55s-.55-.24-.55-.55c0-1.93.95-3.15.96-3.16,1.79-2.62,4.64-2.54,4.75-2.53.3.01.53.27.52.57Zm-13.44,5.85c1.38,1.97,3.43,2.48,3.48,2.5,2.72.81,5.16-.82,5.2-.85.24-.17.59-.11.76.14.17.25.11.59-.14.76-.09.07-1.88,1.28-4.22,1.28-.6,0-1.23-.08-1.88-.27-.1-.02-2.46-.6-4.09-2.92-.17-.25-.12-.59.13-.76.25-.17.59-.12.76.13Zm-1.91-16.64c.03-.09.84-2.13,2.89-3.43,2.04-1.3,4.06-1.22,4.15-1.22.3.01.53.27.52.57-.01.3-.28.54-.57.52-.01,0-1.78-.06-3.51,1.05-1.73,1.1-2.44,2.89-2.46,2.93,0,.01-.55,1.27-.52,2.53,0,.3-.23.55-.53.56,0,0-.01,0-.02,0-.29,0-.54-.24-.55-.53-.04-1.5.58-2.94.6-2.98Z" fill="#333"/><text transform="translate(88.87 50.46)" font-family="MyriadPro-Regular, &apos;Myriad Pro&apos;" font-size="21.06"><tspan x="0" y="0" letter-spacing="0em">R</tspan><tspan x="11.42" y="0" letter-spacing="0em">emember</tspan></text><text transform="translate(88.87 120.68)" font-family="MyriadPro-Regular, &apos;Myriad Pro&apos;" font-size="21.06"><tspan x="0" y="0">Understand</tspan></text><text transform="translate(88.87 194.4)" font-family="MyriadPro-Regular, &apos;Myriad Pro&apos;" font-size="21.06"><tspan x="0" y="0" letter-spacing="0em">A</tspan><tspan x="12.83" y="0">pply</tspan></text><text transform="translate(88.87 267.59)" font-family="MyriadPro-Regular, &apos;Myriad Pro&apos;" font-size="21.06"><tspan x="0" y="0" letter-spacing="0em">A</tspan><tspan x="12.83" y="0">nal</tspan><tspan x="39.64" y="0" letter-spacing="0em">y</tspan><tspan x="49.44" y="0">se</tspan></text><text transform="translate(88.87 333.3)" font-family="MyriadPro-Regular, &apos;Myriad Pro&apos;" font-size="21.06"><tspan x="0" y="0" letter-spacing="0em">E</tspan><tspan x="10.22" y="0" letter-spacing="0em">v</tspan><tspan x="20.26" y="0" letter-spacing="0em">alu</tspan><tspan x="46.99" y="0" letter-spacing="0em">a</tspan><tspan x="57.06" y="0" letter-spacing="0em">t</tspan><tspan x="63.91" y="0" letter-spacing="-.02em">e</tspan></text><text transform="translate(88.87 400.3)" font-family="MyriadPro-Regular, &apos;Myriad Pro&apos;" font-size="21.06"><tspan x="0" y="0" letter-spacing="0em">C</tspan><tspan x="12.15" y="0" letter-spacing="0em">r</tspan><tspan x="18.83" y="0" letter-spacing="0em">e</tspan><tspan x="29.38" y="0" letter-spacing="0em">a</tspan><tspan x="39.45" y="0" letter-spacing="0em">t</tspan><tspan x="46.3" y="0" letter-spacing="0em">e</tspan></text><path d="m70.65,114.6c-2.97-.06-3.07-2.7-1.38-3.49.65-.3,5.44-.24,6.59-.2,2.81.09,2.9,2.91,1.35,3.5-.86.33-5.35.22-6.56.2Zm-9.25-18.15c-.16-1.74,5.57-6.29,5.57-6.29,1.24-.53,2.38.22,2.49,1.43.12,1.3-.87,1.8-1.51,2.43-.53.53-3.63,3.78-4.12,3.94-1.24.42-2.34-.46-2.44-1.52Zm-36.19,35.26c1.08-1.06,2.96-3.15,4.17-3.94,1.71-1.11,4.03.82,1.47,3.37-.92.92-3.19,3.42-4.03,4-1.73,1.18-4.29-.8-1.61-3.43Zm20.67-50.2c3.39-1.66,2.67,4.61,2.67,6.96,0,1.77-.79,3.63-2.67,2.58-1.27-.71-.93-2.98-.93-4.65,0-1.48-.56-4.16.94-4.89Zm-21.84,9.74c.58-1.96,2.52-1.3,3.65-.14,1.84,1.88,6.41,5.48,3.51,6.79-1.43.65-2.19-.43-2.79-1.04-2.05-2.1-4.84-4.02-4.37-5.61Zm38.22,36.57c1.29-.97,2.11-.01,2.77.68,2,2.09,6.3,5.25,3.55,6.79-1.66.92-3.8-2.05-4.63-2.87-1.82-1.81-3.8-3.02-1.7-4.6Zm-20.31,8.92c1.63-.01,3.29.01,4.93.01,5.28,0,7.32-.79,7.32,2.67,0,4.82-2.03,2.68-2.82,5.01-.98,2.9-1.4,2.43-4.76,2.43-3.71,0-3.47.31-4.56-2.62-.51-1.37-.91-.54-1.96-1.66-.85-.92-.82-2.1-.82-3.41,0-2.01.7-2.4,2.67-2.42Zm-25.6-25.61c.57-.3,5.43-.23,6.49-.22,3.39.04,2.68,2.97,1.37,3.54-.6.26-5.49.18-6.58.16-3.14-.06-2.68-2.75-1.28-3.48Zm44.14,10.11c-2.86,4.69-3.81,2.28-6.14,10.92-.72,2.68-3.46,2.12-6.18,2.12-7.49,0-8.31.98-9.3-3.4-1.44-6.34-5.97-7.49-7.53-13.4-5.12-19.48,20.03-28.42,29.26-12.97,3.15,5.28,3.06,11.54-.11,16.74Z" fill="#333" fill-rule="evenodd"/><g id="icon"><path d="m47.29,191.49c-.57.2-1.15.32-1.78.32-.02,0-.05,0-.07,0-.36,0-.71-.05-1.06-.11l-13.12,13.11c-.94.94-1.44,2.19-1.42,3.52.02,1.33.56,2.56,1.53,3.47,1.89,1.78,5.01,1.66,6.94-.27l1.04-1.04-2.54-2.54c-.71-.71-1.1-1.66-1.1-2.67s.39-1.95,1.1-2.66l.51-.51c1.24-1.24,3.28-1.4,4.73-.48.12-.79.47-1.51,1.05-2.08l.51-.52c1.11-1.11,2.75-1.38,4.12-.81.09-.82.43-1.62,1.06-2.24l.51-.51c.07-.07.15-.12.22-.18-.38-.19-.74-.43-1.05-.74-.83-.84-1.23-1.94-1.2-3.04Zm-12.41,18.22c-.45.45-1.17.45-1.62,0-.45-.45-.45-1.17,0-1.62.45-.45,1.17-.45,1.62,0,.45.45.45,1.17,0,1.62Z" fill="#333"/><path d="m52.05,207.44c.39-.39.6-.9.6-1.45s-.21-1.06-.6-1.45l-1.62-1.62-1.62-1.62s0,0,0,0l-1.06-1.06c-.4-.4-.93-.6-1.45-.6s-1.05.2-1.45.6l-.51.51h0c-.39.39-.6.9-.6,1.45s.21,1.06.6,1.45l4.31,4.31c.8.8,2.1.8,2.9,0l.51-.51Z" fill="#333"/><path d="m56.57,199.81l-3.14-3.14c-.39-.39-.9-.6-1.45-.6s-1.06.21-1.45.6l-.51.51c-.8.8-.8,2.1,0,2.9l1.63,1.63,2.69,2.69c.78.78,2.12.78,2.9,0l.52-.52c.8-.8.8-2.1,0-2.9l-1.16-1.16s0,0,0,0Z" fill="#333"/><path d="m45.76,210.52c.39-.39.6-.9.6-1.45s-.21-1.06-.6-1.45l-4.31-4.31c-.39-.39-.9-.6-1.45-.6s-1.06.21-1.45.6l-.51.51c-.39.39-.6.9-.6,1.45s.21,1.06.6,1.45l4.31,4.31c.8.8,2.1.8,2.9,0l.51-.51Z" fill="#333"/><path d="m48.87,177.75c-.29-.29-.72-.38-1.1-.23l-.71.28c-2.83,1.11-6.04.44-8.19-1.71l-.05-.05-1.58,1.58-10.94,10.94,3.19,3.19s.47,3.94,3.37,9.05l9.7-9.7c-2.02-.92-3.48-2.43-3.56-2.52l1.24-1.18s2.57,2.66,5.24,2.69c1.06.06,2-.39,2.84-1.24l.02.02c.06-.06.1-.13.16-.19l3.3-3.3,1.21,1.21-3.3,3.3c-.94.94-.94,2.47,0,3.42.94.94,2.47.94,3.42,0l4.93-4.93c.4-.4.4-1.05,0-1.45l-9.18-9.18Z" fill="#333"/><path d="m77.3,173.7c-.12-.34-.56-.43-.82-.18l-6.79,6.79c-.59.59-1.54.59-2.12,0l-4.91-4.91c-.59-.59-.59-1.54,0-2.12,0,0,1.39-1.39,2.92-2.92,1.84-1.84,3.87-3.87,3.87-3.87.26-.26.16-.7-.18-.82-4.5-1.53-9.67-.5-13.25,3.08-2.4,2.4-3.66,5.52-3.76,8.67,0,.19,0,.39,0,.58,0,.24,0,.48.02.71l7.01,7.01c1.07,1.07,1.07,2.81,0,3.88l-.6.6,1.1,1.1c.76-.76,1.23-1.23,1.25-1.25,1.28.43,2.61.66,3.95.68,3.34.04,6.7-1.22,9.25-3.77,3.58-3.58,4.61-8.76,3.08-13.25Z" fill="#333"/><path d="m54.33,194.53c-.1.1-.22.18-.33.27l.65.65,3.15,3.15c.94.94,2.47.94,3.41,0,.94-.94.94-2.47,0-3.42l-3.76-3.76-3.11,3.11Z" fill="#333"/></g><path d="m52.89,338.21c.08-.54.12-1.1.12-1.67s-.04-1.11-.12-1.65l-2.46-.88c-.16-.48-.35-.95-.58-1.39l1.13-2.36c-.66-.9-1.45-1.69-2.35-2.35l-2.36,1.13c-.44-.23-.91-.43-1.39-.58l-.87-2.46c-.54-.08-1.09-.12-1.66-.12s-1.12.04-1.66.12l-.87,2.46c-.48.15-.95.35-1.39.58l-2.36-1.13c-.9.65-1.69,1.45-2.35,2.35l1.12,2.36c-.23.44-.42.9-.58,1.39l-2.46.88c-.08.54-.13,1.09-.13,1.65s.05,1.13.13,1.67l2.46.87c.16.48.35.95.58,1.39l-1.12,2.36c.66.9,1.45,1.69,2.35,2.35l2.36-1.12c.44.23.91.43,1.39.58l.87,2.45c.54.08,1.1.13,1.66.13s1.12-.04,1.66-.13l.87-2.45c.49-.15.95-.35,1.39-.58l2.36,1.12c.89-.65,1.69-1.45,2.35-2.35l-1.13-2.36c.23-.44.43-.9.58-1.39l2.46-.87Zm-10.54,2.35c-2.22,0-4.02-1.79-4.02-4.01s1.8-4.02,4.02-4.02,4.02,1.8,4.02,4.02-1.8,4.01-4.02,4.01Z" fill="red"/><path d="m75.83,326.92c.11-.69.17-1.38.17-2.09s-.06-1.41-.17-2.09l-3.1-1.11c-.18-.61-.43-1.19-.73-1.75l1.41-2.97c-.82-1.14-1.82-2.14-2.96-2.97l-2.97,1.42c-.56-.3-1.14-.55-1.75-.73l-1.11-3.1c-.68-.1-1.38-.16-2.09-.16s-1.41.06-2.09.16l-1.11,3.1c-.61.18-1.19.43-1.75.73l-2.97-1.42c-1.14.83-2.14,1.83-2.96,2.97l1.41,2.97c-.3.56-.54,1.14-.73,1.75l-3.1,1.11c-.11.68-.16,1.38-.16,2.09s.06,1.4.16,2.09l3.1,1.1c.18.61.43,1.2.73,1.76l-1.41,2.97c.82,1.14,1.82,2.13,2.96,2.97l2.97-1.42c.56.29,1.14.54,1.75.73l1.11,3.11c.68.1,1.38.16,2.09.16s1.41-.06,2.09-.16l1.11-3.11c.61-.19,1.19-.44,1.75-.73l2.97,1.42c1.14-.83,2.14-1.83,2.96-2.97l-1.41-2.97c.29-.56.54-1.15.73-1.76l3.1-1.1Zm-13.3,2.97c-2.8,0-5.07-2.26-5.07-5.06s2.28-5.07,5.07-5.07,5.07,2.27,5.07,5.07-2.27,5.06-5.07,5.06Z" fill="#2c3e50"/><path d="m43.14,320.19l1.68-.8c.02-.39.01-.79-.03-1.19-.04-.4-.11-.79-.21-1.17l-1.81-.44c-.14-.33-.31-.64-.51-.94l.62-1.75c-.53-.59-1.15-1.1-1.84-1.5l-1.59.97c-.33-.13-.67-.24-1.03-.31l-.8-1.68c-.39-.02-.78-.01-1.19.03-.4.04-.79.11-1.17.21l-.44,1.81c-.33.14-.64.31-.94.51l-1.76-.63c-.59.53-1.1,1.15-1.49,1.84l.97,1.59c-.13.33-.24.67-.31,1.03l-1.68.8c-.02.39-.01.79.03,1.19.04.4.11.79.21,1.17l1.81.44c.14.33.31.65.51.95l-.62,1.75c.53.59,1.15,1.1,1.84,1.5l1.59-.97c.33.13.67.24,1.03.31l.8,1.68c.39.02.79.01,1.19-.03.4-.04.79-.11,1.17-.21l.44-1.81c.33-.14.65-.32.94-.51l1.75.63c.59-.54,1.1-1.15,1.49-1.84l-.97-1.59c.13-.33.24-.68.31-1.03Zm-5.63,1.64c-1.57.16-2.98-.98-3.15-2.55-.16-1.58.99-2.98,2.56-3.15,1.57-.16,2.98.98,3.14,2.56.16,1.58-.98,2.98-2.56,3.14Z" fill="#2c3e50"/><g><path d="m71.24,183.7c-.18,0-.36,0-.54-.01l-.39-.02-1.08-2.26c-.27-.07-.54-.15-.81-.24l-2.13,1.3-.34-.2c-.97-.57-1.82-1.27-2.55-2.08l-.26-.29.83-2.34c-.15-.24-.28-.5-.4-.75l-2.42-.59-.1-.38c-.14-.54-.24-1.07-.3-1.62-.06-.55-.07-1.1-.04-1.65l.02-.39,2.25-1.07c.07-.27.15-.54.24-.81l-1.29-2.12.19-.34c.55-.96,1.25-1.82,2.07-2.56l.29-.26,2.35.84c.25-.15.49-.29.75-.41l.59-2.42.38-.1c.53-.14,1.07-.24,1.62-.29.37-.04.73-.06,1.09-.06.18,0,.37,0,.55.01l.39.02,1.07,2.25c.27.07.54.15.81.25l2.12-1.3.34.2c.96.56,1.81,1.25,2.55,2.08l.26.29-.83,2.34c.15.25.29.49.4.75l2.42.59.1.38c.14.53.24,1.07.3,1.62.06.55.07,1.09.04,1.65l-.02.39-2.25,1.07c-.07.27-.15.54-.24.82l1.29,2.12-.19.34c-.54.95-1.24,1.81-2.07,2.56l-.29.26-2.35-.84c-.25.15-.5.28-.74.4l-.59,2.43-.38.1c-.54.14-1.08.24-1.62.29-.37.04-.74.06-1.1.06Zm.02-13.63c-.1,0-.21,0-.32.02-1.69.17-2.91,1.69-2.74,3.37.16,1.57,1.47,2.75,3.05,2.75.11,0,.21,0,.32-.02.82-.08,1.55-.48,2.07-1.12.52-.63.76-1.43.67-2.25-.16-1.57-1.47-2.76-3.05-2.76Z" fill="red"/><path d="m71.27,163.23c.17,0,.34,0,.51.01l1.04,2.19c.46.09.9.23,1.34.4l2.07-1.26c.9.52,1.7,1.18,2.39,1.95l-.81,2.28c.26.39.48.79.66,1.23l2.36.58c.13.49.22,1,.28,1.52.05.52.06,1.03.04,1.54l-2.19,1.04c-.09.46-.23.91-.4,1.34l1.26,2.07c-.52.9-1.17,1.7-1.94,2.4l-2.28-.82c-.39.25-.8.48-1.23.67l-.58,2.36c-.49.13-1,.22-1.52.28-.35.04-.69.05-1.03.05-.17,0-.34,0-.51-.01l-1.04-2.19c-.46-.1-.9-.23-1.33-.4l-2.07,1.26c-.9-.52-1.7-1.18-2.39-1.95l.81-2.28c-.26-.39-.48-.8-.66-1.23l-2.35-.57c-.13-.5-.22-1-.28-1.52-.05-.52-.06-1.04-.04-1.54l2.19-1.04c.09-.46.22-.9.4-1.33l-1.26-2.07c.52-.9,1.17-1.7,1.94-2.4l2.28.82c.39-.26.79-.48,1.22-.67l.58-2.36c.49-.13,1-.22,1.52-.27.35-.04.69-.05,1.03-.05m-.02,13.63c.13,0,.26,0,.39-.02,2.05-.21,3.54-2.04,3.33-4.09-.2-1.92-1.82-3.35-3.7-3.35-.13,0-.26,0-.39.02-2.05.21-3.54,2.04-3.33,4.09.2,1.92,1.82,3.34,3.7,3.34m.02-14.95h0c-.39,0-.78.02-1.17.06-.58.06-1.15.16-1.71.31l-.76.2-.19.76-.43,1.75c-.08.04-.17.09-.25.14l-1.69-.6-.74-.26-.58.52c-.88.78-1.62,1.7-2.21,2.72l-.39.68.41.67.93,1.53c-.03.09-.06.18-.08.27l-1.62.77-.71.34-.04.78c-.03.58-.02,1.17.04,1.75.06.58.16,1.15.32,1.72l.2.76.76.18,1.74.42c.04.08.09.17.14.25l-.6,1.69-.26.73.52.58c.77.87,1.68,1.61,2.71,2.21l.68.4.67-.41,1.53-.94c.09.03.18.05.26.08l.78,1.63.34.71.78.04c.19,0,.38.01.57.01.39,0,.78-.02,1.17-.06.57-.06,1.15-.16,1.71-.31l.76-.2.19-.76.43-1.75c.08-.04.16-.09.24-.13l1.69.6.74.27.58-.53c.88-.8,1.62-1.71,2.2-2.71l.39-.68-.41-.67-.93-1.53c.03-.09.06-.18.08-.27l1.62-.77.71-.34.04-.78c.03-.59.02-1.16-.04-1.75-.06-.58-.17-1.17-.32-1.73l-.2-.75-.76-.19-1.74-.43c-.04-.08-.09-.17-.13-.25l.6-1.69.26-.73-.52-.58c-.78-.88-1.7-1.62-2.71-2.21l-.68-.39-.67.41-1.53.93c-.09-.03-.18-.06-.27-.08l-.77-1.62-.34-.71-.78-.04c-.19,0-.38-.01-.58-.01h0Zm-.02,13.63c-1.24,0-2.27-.93-2.4-2.16-.14-1.32.83-2.51,2.15-2.65.08,0,.17-.01.25-.01,1.24,0,2.27.93,2.39,2.17.07.64-.12,1.27-.53,1.77-.41.5-.98.81-1.62.88-.08,0-.17.01-.25.01h0Z" fill="#fff"/></g><path d="m68.92,255.52l2.03-.96c.03-.48.02-.95-.03-1.43-.05-.49-.14-.96-.26-1.41l-2.19-.54c-.17-.4-.37-.78-.62-1.14l.75-2.12c-.64-.72-1.39-1.33-2.22-1.81l-1.92,1.17c-.4-.16-.81-.29-1.24-.37l-.97-2.03c-.47-.02-.95-.01-1.43.04-.48.05-.96.14-1.41.26l-.54,2.19c-.4.17-.78.38-1.14.62l-2.12-.76c-.72.64-1.32,1.39-1.8,2.22l1.17,1.92c-.16.4-.29.81-.37,1.24l-2.03.97c-.03.47-.02.95.03,1.43.05.49.14.95.26,1.41l2.19.53c.17.4.38.78.62,1.14l-.75,2.12c.64.72,1.39,1.32,2.22,1.81l1.92-1.17c.4.16.81.29,1.24.37l.97,2.03c.47.02.95.01,1.43-.04.49-.05.95-.14,1.41-.26l.53-2.19c.4-.17.78-.38,1.14-.62l2.12.76c.72-.65,1.32-1.39,1.8-2.22l-1.17-1.92c.16-.4.29-.82.37-1.24Zm-6.79,1.98c-1.9.2-3.6-1.18-3.8-3.08-.2-1.9,1.19-3.6,3.09-3.8,1.9-.2,3.6,1.19,3.8,3.09.2,1.9-1.19,3.6-3.09,3.79Z" fill="red"/><path d="m53.01,112.99l1.8-.85c.02-.42.01-.84-.03-1.27-.04-.43-.12-.85-.23-1.25l-1.94-.47c-.15-.36-.33-.69-.55-1.01l.67-1.87c-.57-.63-1.23-1.18-1.97-1.6l-1.7,1.04c-.36-.14-.72-.26-1.1-.33l-.86-1.8c-.42-.02-.84-.01-1.27.03-.43.04-.85.12-1.25.23l-.47,1.94c-.36.15-.69.33-1.01.55l-1.88-.67c-.63.57-1.17,1.23-1.6,1.97l1.03,1.7c-.14.36-.26.72-.33,1.1l-1.8.86c-.02.42-.01.84.03,1.27.04.43.12.84.23,1.25l1.94.47c.15.36.33.69.55,1.01l-.67,1.87c.57.63,1.23,1.17,1.97,1.6l1.7-1.04c.35.14.72.25,1.1.33l.86,1.8c.41.02.84.01,1.27-.03.43-.04.84-.12,1.25-.23l.47-1.94c.36-.15.69-.34,1.01-.55l1.88.67c.63-.57,1.17-1.23,1.6-1.97l-1.03-1.7c.14-.36.26-.72.33-1.1Z" fill="red" stroke="#fff" stroke-miterlimit="10" stroke-width="1.32"/><g><g><path d="m30.8,277.45l5.76-5.76,5.76-5.76c.86,1.33,1.85,2.57,2.97,3.68,1.12,1.12,2.35,2.11,3.68,2.97l-5.76,5.76-5.76,5.76c-.92.92-2.12,1.38-3.33,1.38s-2.41-.46-3.32-1.38c-.92-.92-1.38-2.12-1.38-3.32s.46-2.41,1.38-3.33Z" fill="#252525"/><path d="m30.71,284.2c-.91-.91-1.42-2.13-1.42-3.42s.5-2.51,1.42-3.42l11.63-11.63.09.14c.85,1.32,1.84,2.55,2.95,3.66,1.11,1.11,2.34,2.1,3.66,2.95l.14.09-11.63,11.63c-.91.91-2.13,1.42-3.42,1.42-1.29,0-2.51-.5-3.42-1.42Zm14.48-14.48c-1.08-1.08-2.06-2.28-2.89-3.56l-11.39,11.39c-.86.86-1.34,2.01-1.34,3.23s.48,2.37,1.34,3.23c.86.86,2.01,1.34,3.23,1.34s2.37-.48,3.23-1.34l11.39-11.39c-1.28-.84-2.48-1.81-3.56-2.89Z" fill="#252525"/></g><g><path d="m47.48,267.43c3.4,3.41,8.11,5.51,13.3,5.51,5.2,0,9.9-2.11,13.3-5.51,3.41-3.41,5.51-8.11,5.51-13.3,0-5.2-2.11-9.9-5.51-13.3s-8.11-5.51-13.3-5.51c-5.2,0-9.9,2.11-13.3,5.51-3.4,3.41-5.51,8.11-5.51,13.3,0,5.2,2.11,9.9,5.51,13.3Zm3.33-3.33c-2.56-2.56-4.14-6.08-4.14-9.97s1.58-7.42,4.14-9.97,6.08-4.14,9.97-4.14,7.42,1.58,9.97,4.14c2.56,2.56,4.14,6.08,4.14,9.97s-1.58,7.42-4.14,9.97c-2.56,2.56-6.08,4.14-9.97,4.14s-7.42-1.58-9.97-4.14Z" fill="#252525"/><path d="m47.38,267.52c-3.58-3.58-5.55-8.34-5.55-13.4,0-5.06,1.97-9.82,5.55-13.4,3.58-3.58,8.34-5.55,13.4-5.55s9.82,1.97,13.4,5.55c3.58,3.58,5.55,8.34,5.55,13.4s-1.97,9.82-5.55,13.4c-3.58,3.58-8.34,5.55-13.4,5.55s-9.82-1.97-13.4-5.55Zm.19-26.61c-3.53,3.53-5.47,8.22-5.47,13.21s1.94,9.68,5.47,13.21c3.53,3.53,8.22,5.47,13.21,5.47,4.99,0,9.68-1.94,13.21-5.47,3.53-3.53,5.47-8.22,5.47-13.21s-1.94-9.68-5.47-13.21c-3.53-3.53-8.22-5.47-13.21-5.47s-9.68,1.94-13.21,5.47Zm3.14,23.28c-2.69-2.69-4.18-6.27-4.18-10.07s1.48-7.38,4.18-10.07,6.27-4.18,10.07-4.18,7.38,1.48,10.07,4.18c2.69,2.69,4.18,6.27,4.18,10.07s-1.48,7.38-4.18,10.07c-2.69,2.69-6.27,4.18-10.07,4.18-3.8,0-7.38-1.48-10.07-4.18Zm.19-19.95c-2.64,2.64-4.1,6.15-4.1,9.88s1.46,7.23,4.1,9.88c2.64,2.64,6.15,4.1,9.88,4.1,3.73,0,7.23-1.46,9.88-4.1,2.64-2.64,4.1-6.15,4.1-9.88s-1.46-7.23-4.1-9.88c-2.64-2.64-6.15-4.1-9.88-4.1s-7.23,1.46-9.88,4.1Z" fill="#252525"/></g></g><path d="m47.05,114.94c-1.68.17-3.19-1.05-3.37-2.73-.17-1.69,1.06-3.19,2.74-3.37,1.68-.17,3.19,1.05,3.36,2.74.17,1.69-1.05,3.19-2.74,3.36Z" fill="#fff"/><path d="m51.61,36.6l1.38-.65c.02-.32.01-.64-.02-.97-.03-.33-.09-.65-.18-.96l-1.48-.36c-.11-.27-.25-.53-.42-.77l.51-1.43c-.43-.49-.94-.9-1.5-1.23l-1.3.8c-.27-.11-.55-.2-.84-.25l-.66-1.38c-.32-.02-.64,0-.97.03-.33.03-.65.09-.96.17l-.36,1.48c-.27.11-.53.26-.77.42l-1.44-.51c-.49.43-.9.94-1.22,1.51l.79,1.3c-.11.27-.2.55-.25.84l-1.38.66c-.02.32-.01.64.02.97.03.33.09.64.18.96l1.48.36c.11.27.25.53.42.77l-.51,1.43c.43.49.94.9,1.5,1.23l1.3-.79c.27.11.55.19.84.25l.66,1.38c.32.02.64,0,.97-.03.33-.03.65-.09.96-.17l.36-1.48c.27-.12.53-.26.77-.42l1.44.51c.48-.44.9-.94,1.22-1.51l-.79-1.3c.11-.27.2-.55.25-.84Z" fill="red" stroke="#fff" stroke-miterlimit="10" stroke-width="1.01"/><path d="m47.05,38.09c-1.29.13-2.44-.8-2.58-2.09-.13-1.29.81-2.44,2.1-2.58,1.29-.13,2.44.81,2.57,2.1.13,1.29-.81,2.44-2.09,2.57Z" fill="#fff"/><g><g id="lyszqq.tif"><path d="m45.26,389.77c.83-2.49,1.55-2.42,2.32-2.66.16-.05.36-.22.4-.37.22-1.02.47-2.05.58-3.08.12-1.13-.12-2.24-.48-3.31-.11-.34-.29-.42-.62-.39-1.44.14-2.88.08-4.28-.36-1.85-.57-3.36-1.55-4-3.49-.48-1.45-.68-2.96-.59-4.49.12-2.04.34-4.08.52-6.13.04-.41.27-.6.67-.49,1.89.51,3.76,1.09,5.44,2.13,1.64,1.02,2.6,2.53,3.1,4.37.54,2,.84,4.04.42,6.08-.24,1.15.18,2.03.68,3.05.11-.14.2-.23.25-.33.53-.92,1.03-1.85,1.59-2.75.21-.34.28-.59.15-1.01-.87-2.91-.31-5.46,1.96-7.57,1.4-1.3,3.06-2.12,4.85-2.68,1.95-.61,3.92-1.22,5.92-1.61,1.93-.37,3.91-.48,5.87-.67.55-.05.73.14.67.69-.1.84-.23,1.67-.41,2.49-.45,2-1.07,3.95-2.03,5.77-1.19,2.25-2.58,4.37-4.76,5.82-1.33.88-2.8,1.42-4.38,1.54-1.62.13-3.25.14-4.88.17-.41,0-.83-.09-1.33-.15,3.3-4.63,7.28-8.48,11.51-12.1-.04-.05-.08-.1-.11-.15-.18.1-.36.19-.53.31-2.53,1.67-4.9,3.53-7.08,5.63-1.28,1.24-2.48,2.56-3.71,3.84-1.23,1.29-1.85,2.88-2.2,4.59-.38,1.88-.17,5.41-.52,7.3"/></g><path d="m56.3,407.08l3.4-.67c.22-.7.38-1.41.49-2.16.11-.74.16-1.48.15-2.21l-3.06-1.63c-.1-.66-.26-1.3-.49-1.93l1.93-2.88c-.68-1.31-1.57-2.51-2.63-3.55l-3.31,1.02c-.54-.4-1.11-.74-1.71-1.03l-.68-3.4c-.69-.21-1.41-.38-2.15-.49-.74-.11-1.48-.16-2.2-.15l-1.63,3.06c-.66.1-1.31.27-1.93.49l-2.88-1.93c-1.31.69-2.51,1.58-3.54,2.64l1.02,3.31c-.39.54-.74,1.1-1.02,1.71l-3.4.68c-.22.69-.38,1.41-.49,2.16-.11.74-.16,1.47-.15,2.21l3.06,1.62c.1.66.26,1.31.49,1.94l-1.93,2.88c.68,1.31,1.57,2.5,2.63,3.55l3.31-1.02c.54.39,1.1.73,1.71,1.03l.68,3.4c.69.21,1.41.38,2.15.49.74.11,1.48.16,2.2.15l1.63-3.06c.66-.11,1.31-.28,1.94-.49l2.88,1.93c1.31-.7,2.51-1.58,3.54-2.64l-1.02-3.31c.39-.54.74-1.11,1.03-1.72Zm-10.9.39c-2.91-.43-4.94-3.13-4.51-6.05.43-2.92,3.15-4.93,6.06-4.5,2.91.43,4.93,3.14,4.5,6.06-.43,2.92-3.14,4.93-6.05,4.5Z" fill="red"/></g></svg>