<?xml version="1.0" encoding="UTF-8"?><svg id="Ebene_1" xmlns="http://www.w3.org/2000/svg" width="116" height="116" viewBox="0 0 116 116"><path d="m6.15,56.63c-.76,1.64-1.13,3.43-1.13,5.47,0,5.27,3.09,10.07,7.83,12.37.47-7.13,4.86-13.45,11.36-16.22.03-.02.06-.05.1-.07l.84-.32c.52-.2,1.11.06,1.31.58.19.5-.04,1.05-.52,1.27,0,.01,0,.02,0,.03-6.6,2.33-11.01,8.68-11.09,15.77,0,.34,0,.67.02,1.02.01.31.03.62.06.94,0,.04.01.09.01.13.09.97.25,2.02.5,3.17,1.99,7.86,8.7,13.51,16.64,14.25.58.05,1.17.08,1.75.08.63,0,1.27-.03,1.9-.09l1.29-.13-1.62,11.55h11.83v-.83c0-10.06,9.27-18.29,17.68-19.33.08-.04.17-.09.25-.14.39.02.79.03,1.18.03.11,0,.23-.01.34-.01.31,0,.61-.02.91-.03.69-.04,1.39-.11,2.1-.22,4.49-.73,8.33-2.78,10.94-5.52,1.02-1.17,1.92-2.5,2.67-4,.81-1.87,1.13-3.88.8-5.89-.69-4.32-4.1-7.68-8.73-9.31-.02-.23,0-.47.07-.7.14-.47.46-.85.84-1.12,5.19,1.91,9.02,5.82,9.82,10.81.21,1.29.18,2.57-.02,3.83,1.23-.15,2.31-.38,3.25-.69l.22-.07.22.02c1.12.12,2.29.24,3.33.24,10.42,0,18.9-8.47,18.9-18.9,0-4.45-1.57-8.72-4.33-12.04-.94,6.46-6.23,11.42-12.63,11.49,1.26,1.68,2.44,4.26,1.99,7.8-.07.52-.51.89-1.01.89-.04,0-.08,0-.13-.01-.56-.07-.95-.58-.88-1.14.69-5.41-3.31-8.08-3.49-8.19-.47-.31-.61-.93-.31-1.4.3-.47.93-.62,1.4-.31.02.01.07.04.14.09.7.16,1.42.25,2.17.25,6,0,10.88-5.17,10.88-11.53,0-.38-.02-.76-.06-1.13-.02-.16-.04-.32-.06-.48-.02-.17-.04-.34-.07-.51-.29-1.44-.82-2.8-1.52-4.06-1.24-2.25-3.05-4.14-5.3-5.36l-.88-.44h-.01c-.12-.05-.28-.11-.45-.23h0c-.16-.05-.32-.1-.49-.18l-.14-.07c-.09-.02-.18-.05-.27-.09-.16-.02-.28-.07-.37-.1h-.24l-.22-.11c-.1-.05-.26-.13-.28-.14-.29,0-.51-.07-.62-.12-.25,0-.46-.05-.62-.09-.04-.01-.09-.03-.12-.03h-1.68l-.07-.12-.22-.36c-2.13-3.47-5.85-5.54-9.95-5.54-.98,0-1.9.11-2.98.34l-.59.13-.39-.46c-3.08-3.53-7.59-5.55-12.39-5.55-2.47,0-4.76.47-6.84,1.39l-.52.23-.47-.33c-1.85-1.3-4.22-2.03-6.67-2.03-2.31,0-4.65.72-6.74,2.03,3.86,2.15,6.56,6.5,6.74,11.55,0,0,0,0,0,.01.02.36,0,.69-.01.73-.04.53-.48.94-1.01.94h-.08c-.56-.04-.98-.53-.93-1.09.01-.16.02-.48-.02-.68,0-.06.01-.12.01-.18-.36-5.57-4.21-10.06-9.1-10.63-.13-.02-.26-.02-.39-.03-.1-.01-.21-.01-.31-.02-.27-.02-.55-.06-.82-.06-4.45,0-8.58,2.58-10.52,6.56l-.26.52-.31.03-.27.02c-7.07.57-13.04,6.15-14.19,13.28l-.09.54-.5.23c-4.56,2.05-7.51,6.61-7.51,11.61,0,1.66.39,3.48,1.15,5.4l.16.41-.18.39Zm69.5-21.03c.49-.27,1.11-.09,1.38.4.02.03,2.01,3.59,6.07,4.85.04.02,4.19,1.53,8.51-.94.49-.28,1.11-.11,1.39.38.28.49.11,1.11-.38,1.39-2.3,1.32-4.56,1.68-6.36,1.68-2.21,0-3.74-.56-3.82-.59-4.78-1.48-7.1-5.61-7.2-5.79-.27-.49-.09-1.11.4-1.38Zm-48.57,40.13c2.58,3.66,6.39,4.62,6.48,4.65,5.08,1.51,9.62-1.53,9.69-1.58.46-.32,1.09-.2,1.41.26.32.46.21,1.09-.26,1.41-.17.12-3.49,2.38-7.87,2.38-1.11,0-2.29-.14-3.5-.51-.19-.04-4.58-1.12-7.62-5.44-.32-.46-.22-1.09.24-1.42.46-.32,1.09-.22,1.42.24Zm-3.56-30.99c.06-.16,1.57-3.96,5.37-6.39,3.8-2.42,7.57-2.27,7.72-2.27.56.03.99.5.97,1.06-.02.56-.52,1-1.05.97-.03,0-3.31-.12-6.55,1.95-3.23,2.05-4.55,5.38-4.59,5.45-.01.02-1.03,2.37-.96,4.7.02.56-.42,1.03-.98,1.04-.01,0-.02,0-.03,0-.54,0-1-.44-1.02-.99-.08-2.79,1.08-5.47,1.12-5.54Z" fill="#7186b9"/><g><path d="m69.01,58.97l4.44-2.11c.06-1.04.03-2.08-.07-3.14-.11-1.06-.3-2.09-.57-3.09l-4.78-1.17c-.37-.88-.82-1.7-1.35-2.49l1.64-4.63c-1.4-1.57-3.03-2.9-4.85-3.96l-4.2,2.57c-.88-.36-1.78-.64-2.72-.82l-2.12-4.44c-1.03-.05-2.07-.03-3.13.08-1.05.11-2.09.3-3.08.56l-1.17,4.78c-.88.37-1.7.83-2.49,1.35l-4.63-1.66c-1.57,1.4-2.9,3.05-3.95,4.86l2.55,4.2c-.35.88-.63,1.78-.81,2.71l-4.44,2.12c-.06,1.03-.03,2.08.08,3.14.11,1.06.3,2.08.57,3.09l4.78,1.16c.37.88.82,1.71,1.35,2.5l-1.64,4.63c1.4,1.57,3.03,2.89,4.85,3.96l4.2-2.56c.87.34,1.77.62,2.71.82l2.12,4.44c1.02.05,2.08.03,3.13-.08,1.06-.11,2.08-.3,3.08-.56l1.17-4.78c.88-.38,1.7-.84,2.49-1.35l4.63,1.66c1.56-1.41,2.9-3.05,3.94-4.86l-2.55-4.19c.35-.88.63-1.79.81-2.72Z" fill="red"/><path d="m53.34,77.52c-.37,0-.74,0-1.11-.03l-.97-.05-2.2-4.61c-.47-.12-.93-.26-1.4-.43l-4.36,2.66-.84-.49c-1.99-1.16-3.75-2.6-5.25-4.28l-.64-.72,1.7-4.79c-.26-.43-.49-.86-.71-1.31l-4.95-1.2-.25-.94c-.29-1.12-.49-2.21-.61-3.33-.12-1.12-.14-2.26-.08-3.39l.05-.96,4.6-2.19c.12-.47.26-.94.43-1.42l-2.64-4.34.48-.83c1.14-1.97,2.57-3.74,4.27-5.26l.72-.65,4.8,1.71c.43-.26.86-.5,1.3-.71l1.21-4.96.94-.24c1.09-.28,2.21-.49,3.33-.6,1.11-.11,2.25-.14,3.38-.09l.97.05,2.2,4.61c.47.12.95.26,1.42.43l4.34-2.66.84.49c1.97,1.14,3.73,2.58,5.25,4.28l.64.72-1.7,4.79c.26.43.49.86.71,1.3l4.95,1.21.25.93c.29,1.09.5,2.21.61,3.34.12,1.14.14,2.25.08,3.39l-.05.96-4.6,2.18c-.12.47-.26.95-.43,1.42l2.64,4.34-.48.83c-1.12,1.94-2.55,3.71-4.26,5.26l-.72.65-4.81-1.72c-.43.26-.86.49-1.29.7l-1.21,4.97-.94.24c-1.09.29-2.21.49-3.32.6-.75.08-1.5.12-2.26.12Zm-6.02-8.72l.75.3c.83.33,1.65.57,2.44.74l.79.16,2.04,4.27c.65,0,1.29-.03,1.93-.1.64-.07,1.27-.16,1.91-.3l1.12-4.6.74-.32c.76-.33,1.49-.73,2.25-1.22l.68-.44,4.45,1.59c.92-.92,1.74-1.93,2.43-3l-2.46-4.04.3-.75c.33-.83.57-1.64.72-2.43l.16-.81,4.29-2.04c0-.64-.03-1.28-.1-1.93-.07-.64-.17-1.28-.3-1.91l-4.62-1.13-.32-.76c-.31-.75-.71-1.48-1.2-2.21l-.45-.68,1.59-4.46c-.91-.92-1.91-1.74-2.99-2.44l-4.04,2.47-.76-.31c-.83-.33-1.62-.57-2.42-.73l-.8-.16-2.04-4.28c-.65,0-1.29.03-1.93.1-.64.07-1.28.16-1.91.3l-1.13,4.61-.75.32c-.74.31-1.48.72-2.21,1.2l-.68.46-4.47-1.6c-.92.91-1.73,1.92-2.43,3l2.46,4.05-.3.76c-.33.82-.57,1.61-.72,2.41l-.16.8-4.29,2.05c0,.65.03,1.29.1,1.93.07.64.17,1.27.3,1.91l4.61,1.12.32.76c.32.76.72,1.51,1.2,2.23l.45.68-1.58,4.46c.9.91,1.9,1.73,3,2.44l4.04-2.46Z" fill="#fff"/></g><path d="m54.29,63.77c-4.15.43-7.88-2.59-8.31-6.75-.43-4.16,2.61-7.88,6.76-8.31,4.16-.43,7.88,2.6,8.3,6.76.43,4.16-2.6,7.87-6.75,8.3Z" fill="#fff"/></svg>