<?xml version="1.0" encoding="UTF-8"?><svg id="Ebene_1" xmlns="http://www.w3.org/2000/svg" width="116" height="116" viewBox="0 0 116 116"><circle cx="58" cy="58" r="40.58" fill="#ea1f1f"/><g><path d="m57.84,101.58c-24.19-.02-43.71-19.61-43.66-43.85.05-23.89,19.84-43.37,43.98-43.3,24.11.07,43.7,19.64,43.66,43.62-.04,24.14-19.64,43.54-43.97,43.53h0Zm37.81-43.66c-.02-20.63-17.04-37.44-37.82-37.34-20.76.09-37.6,17.01-37.51,37.67.09,20.48,17.08,37.25,37.71,37.22,20.79-.04,37.63-16.85,37.61-37.54h0Z"/><path d="m70.53,77.85c3.41-.05,4.62-1.77,3.67-5.03-2.04-6.98-8.84-11.88-16.4-11.82-7.37.06-14.12,5.09-16.05,11.96-.88,3.13.33,4.83,3.59,4.88,4.24.06,8.48.02,12.72.02h0c4.16.01,8.31.06,12.47,0h0Zm-26.02-24.56c3.96,0,6.95-3.02,6.89-6.96-.06-3.79-3.07-6.74-6.87-6.75-3.89,0-6.96,3.1-6.9,6.99.06,3.81,3.04,6.72,6.88,6.72Zm27.06,0c3.86-.05,6.77-2.97,6.78-6.8,0-3.8-2.95-6.85-6.72-6.91-3.9-.07-7.02,2.97-7.02,6.85s3,6.91,6.96,6.86Z" fill="#fff"/><path d="m58.06,77.87c4.16,0,8.31.05,12.47-.01,3.41-.05,4.62-1.77,3.67-5.03-2.04-6.98-8.84-11.88-16.4-11.82-7.37.06-14.12,5.09-16.05,11.96-.88,3.13.33,4.83,3.59,4.88,4.24.06,8.48.02,12.72.02h0Z"/><path d="m37.63,46.59c.06,3.81,3.04,6.72,6.88,6.72s6.95-3.02,6.89-6.96c-.06-3.79-3.07-6.74-6.87-6.75-3.89,0-6.96,3.1-6.9,6.99Z"/><path d="m64.6,46.44c0,3.95,3,6.91,6.96,6.86,3.86-.05,6.77-2.97,6.78-6.8,0-3.8-2.95-6.85-6.72-6.91-3.9-.07-7.02,2.97-7.02,6.85Z"/></g></svg>