<?xml version="1.0" encoding="UTF-8"?><svg id="Ebene_1" xmlns="http://www.w3.org/2000/svg" width="116" height="116" viewBox="0 0 116 116"><path d="m14.05,58.21c0-23.75,19.41-43.22,43.12-43.25,24.06-.03,43.7,19.25,43.71,42.9,0,24.09-19.13,43.22-43.24,43.24-24.27.02-43.58-18.99-43.59-42.89Zm43.6,37.79c20.98.07,37.99-17.21,37.89-38.5-.1-20.5-17.42-37.29-38.38-37.21-20.92.09-37.83,17.14-37.75,38.07.08,20.79,17.13,37.57,38.25,37.64Z"/><path d="m57.16,20.3c20.97-.09,38.29,16.7,38.38,37.21.1,21.29-16.91,38.57-37.89,38.5-21.12-.07-38.17-16.85-38.25-37.64-.08-20.93,16.83-37.98,37.75-38.07Zm-12.18,48.35c-1.83,0-3.46.33-3.43,2.6.03,2.18,1.61,2.69,3.45,2.69,8.32,0,16.63,0,24.95-.01,1.83,0,3.42-.53,3.44-2.71.02-2.28-1.65-2.57-3.46-2.57-4.16,0-8.32,0-12.47,0-4.16,0-8.32.01-12.47,0Zm-1.26-28.38c-3.55.09-6.27,2.92-6.18,6.43.09,3.65,3.25,6.58,6.88,6.38,3.38-.19,6.13-3.25,6.01-6.69-.12-3.69-2.9-6.22-6.71-6.12Zm20.78,6.23c-.01,3.58,2.94,6.61,6.38,6.55,3.54-.06,6.49-3.02,6.5-6.51,0-3.6-2.83-6.32-6.55-6.29-3.62.03-6.32,2.7-6.33,6.24Z" fill="#fff"/><path d="m57.45,68.65c-4.16,0-8.32.01-12.47,0-1.83,0-3.46.33-3.43,2.6.03,2.18,1.61,2.69,3.45,2.69,8.32,0,16.63,0,24.95-.01,1.83,0,3.42-.53,3.44-2.71.02-2.28-1.65-2.57-3.46-2.57-4.16,0-8.32,0-12.47,0Z"/><path d="m50.43,46.38c-.12-3.69-2.9-6.22-6.71-6.12-3.55.09-6.27,2.92-6.18,6.43.09,3.65,3.25,6.58,6.88,6.38,3.38-.19,6.13-3.25,6.01-6.69Z"/><path d="m70.83,40.26c-3.62.03-6.32,2.7-6.33,6.24-.01,3.58,2.94,6.61,6.38,6.55,3.54-.06,6.49-3.02,6.5-6.51,0-3.6-2.83-6.32-6.55-6.29Z"/></svg>