<?xml version="1.0" encoding="UTF-8"?><svg id="Ebene_1" xmlns="http://www.w3.org/2000/svg" width="116" height="116" viewBox="0 0 116 116"><path d="m14.81,58.11c-.13-23.67,19.29-43.27,42.97-43.36,24.14-.09,43.64,19,43.77,42.75.13,24.89-20.47,43.89-43.3,43.34-24.02.07-43.3-18.9-43.44-42.73ZM58.44,20.04c-21.23,0-38.36,16.85-38.35,37.72.01,21.02,17.21,38.07,38.38,38.05,20.69-.02,37.75-17.1,37.77-37.82.02-20.94-16.92-37.95-37.8-37.95Z"/><path d="m58.47,95.8c-21.17.02-38.37-17.03-38.38-38.05-.01-20.87,17.12-37.72,38.35-37.72,20.88,0,37.83,17,37.8,37.95-.02,20.72-17.08,37.8-37.77,37.82Zm16.1-25.63c.4-1.07.41-2.46.09-3.55-.16-.55-1.61-1.24-2.2-1.04-.95.32-2.02,1.16-2.42,2.06-1.95,4.35-5.09,7.08-9.84,7.88-5.25.89-10.46-1.64-13.02-6.31-.36-.65-.65-1.34-.97-2.02-.72-1.51-1.9-2.14-3.46-1.48-1.58.67-1.87,2.05-1.33,3.55,1.25,3.45,3.46,6.2,6.41,8.37,3.12,2.3,6.65,3.33,11.49,3.24,6.38-.06,12.81-4.24,15.24-10.71Zm-9.34-23.75c0,3.36,2.97,6.34,6.4,6.41,3.47.07,6.37-2.75,6.44-6.26.07-3.74-2.59-6.5-6.33-6.54-3.69-.04-6.5,2.71-6.51,6.39Zm-26.99.03c.06,3.43,3.17,6.39,6.65,6.36,3.36-.04,6.22-3,6.22-6.44,0-3.69-2.72-6.37-6.47-6.33-3.72.04-6.47,2.79-6.41,6.42Z" fill="#fff"/><path d="m59.32,80.88c6.38-.06,12.81-4.24,15.24-10.71.4-1.07.41-2.46.09-3.55-.16-.55-1.61-1.24-2.2-1.04-.95.32-2.02,1.16-2.42,2.06-1.95,4.35-5.09,7.08-9.84,7.88-5.25.89-10.46-1.64-13.02-6.31-.36-.65-.65-1.34-.97-2.02-.72-1.51-1.9-2.14-3.46-1.48-1.58.67-1.87,2.05-1.33,3.55,1.25,3.45,3.46,6.2,6.41,8.37,3.12,2.3,6.65,3.33,11.49,3.24Z"/><path d="m71.73,40.03c-3.69-.04-6.5,2.71-6.51,6.39,0,3.36,2.97,6.34,6.4,6.41,3.47.07,6.37-2.75,6.44-6.26.07-3.74-2.59-6.5-6.33-6.54Z"/><path d="m44.64,40.04c-3.72.04-6.47,2.79-6.41,6.42.06,3.43,3.17,6.39,6.65,6.36,3.36-.04,6.22-3,6.22-6.44,0-3.69-2.72-6.37-6.47-6.33Z"/></svg>