<?xml version="1.0" encoding="UTF-8" standalone="no"?>
<svg xmlns="http://www.w3.org/2000/svg" width="33.118103mm" height="44.416382mm" viewBox="0 0 117.34761 157.38088">
  <g transform="translate(551.0162 -3.87253) scale(.17077)">
    <path d="M-3129.5887 943.07933c0-.66175-2.9012-1.61348-6.4472-2.11496-12.7826-1.80774-31.9981-10.40461-45.1301-20.19086-23.0346-17.16586-42.2944-43.90215-44.9079-71.50185-1.9546-20.64164.9271-22.61184 5.8856-35.80634 1.2574-3.34583 3.7325-6.09354 3.7325-7.0391 0-.94555.5047-1.92277 1.1215-2.17162 60.4195-97.20872 129.3967-210.96616 185.1624-302.45125 9.7111-15.93241 9.167-9.64341 9.167-105.96597v-86.90886l-5.0898-1.9996c-2.7995-1.09978-6.0061-2.59946-7.1258-3.33263-1.1198-.73317-2.9522-1.73631-4.0719-2.2292-3.3781-1.48696-11.3879-10.43825-13.8118-15.43521-5.4422-11.21963-6.5477-15.07453-6.5477-22.83274 0-7.31441 1.8789-14.20943 5.5971-20.53972.6577-1.11977 1.7464-3.2953 2.4192-4.83453 1.4406-3.29536 9.0773-10.21417 16.3219-14.78746 5.8898-3.7181 17.3698-6.16667 28.912-6.16667h7.9609l2.6184-5.76852c1.4402-3.17268 2.6319-6.83738 2.6483-8.14378.016-1.3064.5425-2.37528 1.1692-2.37528s1.8009-1.45177 2.6094-3.22617c3.9186-8.60041 18.5182-20.40574 30.3166-24.51427 7.9469-2.76731 24.7773-2.70676 33.2184.11958 15.2721 5.11352 29.1156 18.25574 34.5613 32.81066 1.5787 4.21939 3.5101 8.44253 4.2921 9.38474 1.1083 1.33544 15.6923 1.7131 66.1565 1.7131 68.8049 0 76.8466.58653 85.8347 6.26049 7.0621 4.45808 16.0458 12.66822 16.0458 14.6641 0 .8836.6996 2.30619 1.5547 3.16128 2.8476 2.84753 6.5891 15.76054 6.5891 22.74085 0 7.40318-3.194 17.85352-7.4671 24.43137-5.8126 8.94782-12.8259 14.44229-24.1369 18.90985l-5.1366 2.02883.3861 88.61342.3861 88.61342c3.4698 5.33307 5.5517 11.96577 9.8393 16.72385l188.2109 309.4582c10.9383 23.58615 7.2848 35.22421 3.1416 49.7685-5.5762 18.47194-15.1206 33.68276-30.3294 48.33521-17.7521 17.1028-38.5622 28.22526-57.1887 30.566-3.9192.49251-7.1259 1.42218-7.1259 2.0659 0 .6514-108.945 1.17043-245.6709 1.17043-141.8975 0-245.6709-.50824-245.6709-1.20319zm258.9046-96.04705c3.1727-1.21073 5.7685-2.72912 5.7685-3.37422 0-.6451.8384-1.17289 1.8631-1.17289 2.707 0 12.3988-10.9755 15.7606-17.84826 2.2946-4.69083 2.8884-8.41531 2.8889-18.12014.0005-10.58142-.4784-13.12361-3.58-19.00218-4.4468-8.42807-10.3469-14.67377-18.2861-19.35733-5.4993-3.24416-7.4802-3.61096-19.7719-3.66106-11.8894-.0485-14.498.37469-20.1218 3.26393-8.4501 4.34123-16.2692 12.52796-20.5004 21.46448-4.0536 8.56135-4.7454 24.18665-1.3584 30.68097 1.1152 2.13824 2.0276 4.61215 2.0276 5.49757 0 .88542 3.0544 5.03685 6.7876 9.2254 12.9739 14.55633 30.8839 19.13468 48.5223 12.40373zm-134.7118-92.21839c10.6883-6.02799 11.5666-6.78953 17.3514-15.04466 7.1855-10.25395 9.65-18.91663 8.7536-30.76921-.917-12.12426-5.683-22.74286-13.9895-31.16838-10.3549-10.50328-26.6528-16.82255-39.3085-15.24132-4.0564.50681-7.7264 1.48953-8.1555 2.1838-.4291.69426-2.0149 1.2623-3.5239 1.2623-3.246 0-15.2431 7.71515-20.4361 13.14209-2.0126 2.10327-5.5169 7.48884-7.7873 11.96792-3.6259 7.15332-4.1301 9.54144-4.1452 19.63545-.031 20.61011 7.7246 34.30343 25.0928 44.30504 12.8169 7.38072 32.7867 7.26257 46.1482-.27303zm157.3648-91.6639c23.1032-4.29494 42.1309-18.3115 52.0793-38.36368 6.0352-12.16481 8.4022-21.17378 8.4022-31.98019 0-21.03914-11.2139-45.12364-26.3874-56.67313-7.4382-5.6617-19.9198-12.25871-26.9173-14.22678-7.2956-2.05192-31.1957-2.09587-38.3129-.0704-15.9331 4.53423-34.1815 18.44955-42.2578 32.22357-9.0775 15.48159-12.9076 32.44074-10.2416 45.34812.8804 4.26244 1.6045 8.93471 1.6091 10.38281 0 1.44809.9207 4.38236 2.0359 6.52061 1.1152 2.13825 2.0276 4.47788 2.0276 5.19917 0 1.83842 8.6048 14.52762 13.1666 19.41637 16.9546 18.16962 41.4363 26.56626 64.7963 22.22358zm28.7691-494.57167c-2.1382-1.11517-4.6248-2.02759-5.5257-2.02759-2.7672 0-14.016-11.69013-17.1387-17.81115-4.3333-8.49409-4.2558-27.35284.1428-34.70182 9.8829-16.51209 30.1249-24.81695 45.5851-18.70256 18.8625 7.45998 26.2937 17.88575 26.2937 36.88939 0 12.26574-2.3519 17.97796-11.1462 27.07185-9.4788 9.80152-28.4012 14.398-38.211 9.28188zm-110.6415-79.60065c-6.9968-2.01226-16.45-8.81764-16.45-11.84241 0-.65511-.8341-1.88338-1.8536-2.72949-1.0195-.84612-2.6194-5.14654-3.5552-9.5565-1.8752-8.83636-.2913-19.30071 3.918-25.88455 3.5008-5.47567 11.3299-12.07423 15.3817-12.96416 2.0647-.45348 3.754-1.38677 3.754-2.07397s4.2755-1.24945 9.5011-1.24945c5.2256 0 9.5011.56225 9.5011 1.24945 0 .6872 1.7278 1.62895 3.8395 2.09276 5.2673 1.15689 15.6072 12.30681 18.3405 19.77724 3.2154 8.78819 2.8356 16.53258-1.2327 25.13219-7.3717 15.58244-24.1415 22.93889-41.1444 18.04889z"/>
    <rect width="148.38576" height="17.778332" x="-3005.4004" y="198.44194" fill="#fff" fill-rule="evenodd" color="#000" overflow="visible" rx=".98249692" ry=".96554261" style="isolation:auto;mix-blend-mode:normal;solid-color:#000;solid-opacity:1;marker:none"/>
  </g>
</svg>