<?xml version="1.0" encoding="UTF-8"?>
<svg width="700pt" height="700pt" version="1.1" viewBox="0 0 700 700" xmlns="http://www.w3.org/2000/svg">
 <path fill="#fff" d="m224.98 256.34-70 116.67c-4.3398 7.2109-4.4336 16.191-0.30469 23.496 4.1328 7.3047 11.926 11.828 20.324 11.828h140c8.3984 0 16.148-4.5273 20.301-11.828 4.1523-7.3047 4.0352-16.285-0.30469-23.496l-70-116.67c-8.4219-14.07-31.57-14.07-40.016 0zm-8.7734 105.33 28.793-47.977 28.77 47.977zm383.58-292.74-270.34-56.746c-6.043-1.3086-12.391-0.070313-17.57 3.3125-5.1992 3.4062-8.8164 8.7266-10.078 14.793l-15.398 74.715h-181.39c-12.902 0-23.332 10.453-23.332 23.332v396.67c0 12.879 10.43 23.332 23.332 23.332h280c12.902 0 23.332-10.453 23.332-23.332v-45.289l102.22 21.441c6.0195 1.3086 12.391 0.070312 17.57-3.3125 5.2031-3.4062 8.8203-8.7266 10.078-14.816l79.66-386.56c2.5938-12.578-5.5039-24.875-18.078-27.535zm-238.12 125.32c-0.09375 1.2148-0.09375 2.4258 0 3.6641v117.48c-0.09375 1.2383-0.09375 2.4492 0 3.6641v131.44 0.93359 50.234h-233.33v-350h176.66 0.91016 55.766zm135.54 256.43-88.898-18.668v-82.738c3.8711 0.46484 7.7656 0.72266 11.688 0.72266 51.473 0 93.332-41.859 93.332-93.332 0-51.473-41.859-93.332-93.332-93.332-3.9219 0-7.8164 0.25781-11.668 0.72266v-35.727c0-12.879-10.43-23.332-23.332-23.332h-50.938l8.7031-42.352 224.68 47.156zm-88.879-148.82v-90.395c3.7812-0.95703 7.7031-1.4688 11.668-1.4688 25.738 0 46.668 20.93 46.668 46.668s-20.93 46.668-46.668 46.668c-3.9648-0.003907-7.8867-0.49219-11.668-1.4727z"/>
</svg>
