<?xml version="1.0" encoding="UTF-8"?> <svg xmlns="http://www.w3.org/2000/svg" id="Ebene_1" data-name="Ebene 1" viewBox="0 0 532 219"><defs><style>.cls-1{fill:#203360;}.cls-2{fill:#8c9fb1;}</style></defs><path class="cls-1" d="M70.26,161.16V149.92c-1.61.16-3.25.24-4.91.24a48.51,48.51,0,0,1-13-1.76v12.77H52.3v13.38H84.85a13.39,13.39,0,0,0-13.39-13.37Z"></path><path class="cls-1" d="M109.27,153.15l-13-15.31c-1.19,1.09-2.46,2.14-3.78,3.13A48.42,48.42,0,0,1,81,147.33l13.94,16.54,0,0,8,10.72,3.27-2.44,11.12-8.3h0L129,155.15h0a13.39,13.39,0,0,0-18.73-2.72Z"></path><path class="cls-2" d="M84.58,96.23a21.2,21.2,0,1,1-33.35-6.88h0l.59-.5,0,0a17,17,0,0,1,1.44-1.09A21.13,21.13,0,0,1,64.79,84h.5c.41,0,.82,0,1.21,0l13.86-14.8A39,39,0,1,0,97.24,82.7Z"></path><path class="cls-1" d="M178.72,99l-7.83-56.6h6.62l5.56,40.25,5.57-40.25h6.61L187.42,99Z"></path><path class="cls-1" d="M209.85,42.41a9.28,9.28,0,0,1,7.37,3.69A13.42,13.42,0,0,1,220.29,55V86.44a13.4,13.4,0,0,1-3.07,8.88,9.22,9.22,0,0,1-14.75,0,13.44,13.44,0,0,1-3.06-8.88V55a13.47,13.47,0,0,1,3.06-8.89A9.28,9.28,0,0,1,209.85,42.41Zm3.48,10.48a4.44,4.44,0,0,0-1-3,3,3,0,0,0-4.9,0,4.44,4.44,0,0,0-1,3V88.53a4.47,4.47,0,0,0,1,3,3.06,3.06,0,0,0,4.9,0,4.47,4.47,0,0,0,1-3Z"></path><path class="cls-1" d="M240.11,74.74V42.41h6.95V99h-6.95l-7-32.32V99h-7V42.41h7Z"></path><path class="cls-1" d="M272.78,92.72h10.44V99H265.83V42.41h6.95Z"></path><path class="cls-1" d="M296.08,92.72h10.44V99h-17.4V42.41h16.53V48.7h-9.57V67.57h7.83v6.29h-7.83Z"></path><path class="cls-1" d="M333.3,99h-7V78.47a5.21,5.21,0,0,0-1-3.25,3,3,0,0,0-2.45-1.36h-3.48V99h-7V42.41h10.44a9.28,9.28,0,0,1,7.37,3.69A13.42,13.42,0,0,1,333.3,55v8a8.3,8.3,0,0,1-3.07,6.5,10.83,10.83,0,0,1-1.7,1.26,13.81,13.81,0,0,1,1.7,1.22,8.44,8.44,0,0,1,3.07,6.54Zm-7-46.12a4.44,4.44,0,0,0-1-3,3.07,3.07,0,0,0-2.45-1.24h-3.48V67.57h3.48a3.1,3.1,0,0,0,2.45-1.24,4.45,4.45,0,0,0,1-3Z"></path><path class="cls-1" d="M353.11,74.74V42.41h7V99h-7l-6.95-32.32V99h-7V42.41h7Z"></path><path class="cls-1" d="M372.93,92.72h10.44V99H366V42.41H382.5V48.7h-9.57V67.57h7.83v6.29h-7.83Z"></path><path class="cls-1" d="M403.19,74.74V42.41h7V99h-7l-7-32.32V99h-7V42.41h7Z"></path><path class="cls-1" d="M426.49,42.41a9.28,9.28,0,0,1,7.37,3.69A13.47,13.47,0,0,1,436.92,55V86.44a13.44,13.44,0,0,1-3.06,8.88A9.28,9.28,0,0,1,426.49,99H416.05V42.41ZM430,52.89a4.49,4.49,0,0,0-1-3,3.07,3.07,0,0,0-2.45-1.24H423v44h3.48a3.09,3.09,0,0,0,2.45-1.23,4.52,4.52,0,0,0,1-3Z"></path><path class="cls-1" d="M449.79,92.72h10.43V99H442.83V42.41h16.52V48.7h-9.56V67.57h7.82v6.29h-7.82Z"></path><path class="cls-1" d="M480,74.74V42.41h7V99h-7l-7-32.32V99h-7V42.41h7Z"></path><path class="cls-1" d="M185.8,167.92h11.06v6.66H178.42v-60h7.38Z"></path><path class="cls-1" d="M238.22,167.92h11.07v6.66H230.85v-60h17.51v6.67H238.22v20h8.3v6.66h-8.3Z"></path><path class="cls-1" d="M311.08,174.58H303.7V152.8a5.58,5.58,0,0,0-1.08-3.44,3.22,3.22,0,0,0-2.6-1.45h-3.69v26.67H289v-60H300a9.84,9.84,0,0,1,7.82,3.91,14.3,14.3,0,0,1,3.24,9.42v8.45a8.85,8.85,0,0,1-3.24,6.89,12.2,12.2,0,0,1-1.81,1.33,15.59,15.59,0,0,1,1.81,1.29,9,9,0,0,1,3.24,6.93Zm-7.38-48.89a4.76,4.76,0,0,0-1.08-3.13,3.28,3.28,0,0,0-2.6-1.31h-3.69v20H300a3.31,3.31,0,0,0,2.6-1.31,4.79,4.79,0,0,0,1.08-3.14Z"></path><path class="cls-1" d="M365.5,148.85V114.58h7.38v60H365.5l-7.38-34.27v34.27h-7.37v-60h7.37Z"></path><path class="cls-1" d="M420.17,167.92h11.06v6.66H412.79v-60h17.52v6.67H420.17v20h8.29v6.66h-8.29Z"></path><path class="cls-1" d="M479.22,148.85V114.58h7.38v60h-7.38l-7.37-34.27v34.27h-7.38v-60h7.38Z"></path><path class="cls-1" d="M53.7,87.45l.33-.21Z"></path><path class="cls-1" d="M81.58,96.08l18.75-20,0,0L132.7,41.61H109.17l-41,43.76h0L67,86.63a5.38,5.38,0,0,0-1.72-.13h-.23a20.94,20.94,0,0,0-12.73,4.84v16.88h17.8l0,0,0,0h.07v-.07L81.59,96.09Z"></path><path class="cls-1" d="M65.34,63.58c1,0,3.07.12,4.92.29V41.45H52.35V65.76A39.9,39.9,0,0,1,65.34,63.58Z"></path><path class="cls-1" d="M52.35,68.37h0l.38-.13Z"></path><path class="cls-1" d="M123.9,99v48.78c3.88,1,7.46,4.44,10,7.89h0l-10,7.48v11.5h17.75V80.06Z"></path><polygon class="cls-2" points="141.72 41.94 123.83 61.02 123.83 89.59 141.72 70.47 141.72 41.94"></polygon></svg> 