<?xml version="1.0" encoding="UTF-8"?>
<svg id="Layer_2" data-name="Layer 2" xmlns="http://www.w3.org/2000/svg" viewBox="0 0 536.32 349.81">
  <defs>
    <style>
      .cls-1 {
        fill: none;
      }

      .cls-2 {
        fill: #fff;
      }

      .cls-3 {
        fill: #1f3568;
      }
    </style>
  </defs>
  <rect class="cls-2" x="40.99" y="269.16" width="441.4" height="44.81"/>
  <g>
    <path class="cls-3" d="m189.42,186.54v-119.68h0V30.1h-118.8s-2.05,0-2.05,0c-21.03,0-38.08,17.05-38.08,38.08v.83h-.02v131.02h40.66v-50.36h77.73v36.86h-.01v81.49c0,9.58,7.77,17.35,17.35,17.35h2.55c11.45,0,20.73-9.28,20.73-20.73v-78.1h-.07Zm-118.29-77.68v-38.35h77.73v38.35h-77.73Z"/>
    <rect class="cls-2" x="32.26" y="208.51" width="36.82" height="36.82"/>
  </g>
  <g>
    <path d="m59.44,282.7c-.62,0-1.15.22-1.59.67-.44.44-.67.98-.67,1.62v4.51h4.54v-4.51c0-.63-.22-1.17-.67-1.62-.44-.44-.98-.67-1.62-.67Z"/>
    <path d="m431,294.7c-.44.44-.67.97-.67,1.59s.22,1.15.67,1.6c.44.45.97.68,1.59.68s1.17-.23,1.62-.68c.44-.45.67-.99.67-1.6v-2.26h-2.28c-.62,0-1.15.22-1.59.67Z"/>
    <g>
      <path d="m115.89,287.24c-.62,0-1.15.22-1.59.67-.44.44-.67.97-.67,1.59v9.08h2.26c.63,0,1.17-.22,1.62-.67.44-.44.67-.98.67-1.62v-6.8c0-.62-.22-1.15-.67-1.59-.44-.44-.98-.67-1.62-.67Z"/>
      <path d="m231.85,294.7c-.44.44-.67.97-.67,1.59s.22,1.15.67,1.6c.44.45.97.68,1.59.68s1.17-.23,1.62-.68c.44-.45.67-.99.67-1.6v-2.26h-2.28c-.62,0-1.15.22-1.59.67Z"/>
      <path d="m311.63,296.29c0,.62.22,1.15.67,1.6.44.45.97.68,1.59.68s1.17-.23,1.62-.68c.44-.45.67-.99.67-1.6v-9.05h-2.28c-.62,0-1.15.22-1.59.67-.44.44-.67.97-.67,1.59v6.8Z"/>
      <path d="m340.18,282.7c-.62,0-1.15.22-1.59.67-.44.44-.67.98-.67,1.62v4.51h4.54v-4.51c0-.63-.22-1.17-.67-1.62-.44-.44-.98-.67-1.62-.67Z"/>
      <path d="m95.48,294.7c-.44.44-.67.97-.67,1.59s.22,1.15.67,1.6c.44.45.97.68,1.59.68s1.17-.23,1.62-.68c.44-.45.67-.99.67-1.6v-2.26h-2.28c-.62,0-1.15.22-1.59.67Z"/>
      <path d="m177.52,287.24c-.62,0-1.15.22-1.59.67-.44.44-.67.97-.67,1.59v2.28h4.54v-2.28c0-.62-.22-1.15-.67-1.59-.44-.44-.98-.67-1.62-.67Z"/>
      <path d="m30.78,254.85v49.97c0,12.25,9.93,22.18,22.18,22.18h419.38c12.25,0,22.18-9.93,22.18-22.18v-49.97H30.78Zm35.46,45.98h-4.51v-9.05h-4.54v9.05h-4.54v-15.85c0-1.25.45-2.32,1.35-3.21.9-.89,1.96-1.33,3.19-1.33h4.54c1.23,0,2.29.45,3.18,1.35.89.9,1.33,1.96,1.33,3.19v15.85Zm18.81,0h-4.51v-2.26c-.18,1.5-.94,2.26-2.28,2.26h-2.26c-1.23,0-2.3-.44-3.19-1.33-.9-.89-1.35-1.96-1.35-3.21v-6.8c0-1.23.45-2.29,1.35-3.18s1.96-1.33,3.19-1.33h4.54v-4.54h4.51v20.39Zm18.81,0h-4.51v-2.26c-.18,1.5-.94,2.26-2.28,2.26h-2.26c-1.23,0-2.3-.44-3.19-1.33-.9-.89-1.35-1.96-1.35-3.21s.45-2.29,1.35-3.18,1.96-1.33,3.19-1.33h4.54v-2.28c0-.62-.22-1.15-.67-1.59-.44-.44-.98-.67-1.62-.67h-2.26c-1.34,0-2.09.75-2.26,2.26h-2.28c.36-3.01,1.88-4.51,4.54-4.51h4.54c1.23,0,2.29.44,3.18,1.33.89.89,1.33,1.95,1.33,3.18v11.34Zm18.81-4.54c0,1.25-.44,2.32-1.33,3.21-.89.89-1.95,1.33-3.18,1.33h-4.54v4.54h-4.54v-20.39h4.54v2.26c0-.76.19-1.33.57-1.7s.94-.56,1.69-.56h2.28c1.23,0,2.29.44,3.18,1.33.89.89,1.33,1.95,1.33,3.18v6.8Zm14.3-9.05h-2.28v9.05c0,.74.24,1.31.73,1.7s.93.58,1.33.58h.22v2.26h-2.28c-1.23,0-2.29-.44-3.18-1.33-.89-.89-1.33-1.96-1.33-3.21v-9.05h-2.28v-2.26h2.28v-4.54h4.51v4.54h2.28v2.26Zm9.73,13.59h-4.54v-15.85h4.54v15.85Zm0-18.13h-4.54v-2.26h4.54v2.26Zm18.79,10.39c0,2.12-.76,3.94-2.27,5.46-1.51,1.52-3.33,2.28-5.45,2.28h-5.87v-15.85h4.54v13.59h2.26c.63,0,1.17-.23,1.62-.68.44-.45.67-.99.67-1.6v-11.31h4.51v8.1Zm18.81.95h-9.05v2.26c0,.62.22,1.15.67,1.6.44.45.97.68,1.59.68h2.28c1.5,0,2.26-.76,2.26-2.28h2.26c-.34,3.03-1.85,4.54-4.51,4.54h-4.54c-1.23,0-2.3-.44-3.19-1.33-.9-.89-1.35-1.96-1.35-3.21v-6.8c0-1.23.45-2.29,1.35-3.18.9-.89,1.96-1.33,3.19-1.33h4.54c1.23,0,2.29.44,3.18,1.33.89.89,1.33,1.95,1.33,3.18v4.54Zm24.03,6.8h-11.34v-20.39h4.54v18.13h6.8v2.26Zm13.71-14.37h-5.39v5.39h3.6v1.81h-3.6v5.39h5.39v1.79h-8.98v-16.16h8.98v1.79Zm18.18,14.37h-4.51v-2.26c-.18,1.5-.94,2.26-2.28,2.26h-2.26c-1.23,0-2.3-.44-3.19-1.33-.9-.89-1.35-1.96-1.35-3.21s.45-2.29,1.35-3.18,1.96-1.33,3.19-1.33h4.54v-2.28c0-.62-.22-1.15-.67-1.59-.44-.44-.98-.67-1.62-.67h-2.26c-1.34,0-2.09.75-2.26,2.26h-2.28c.36-3.01,1.88-4.51,4.54-4.51h4.54c1.23,0,2.29.44,3.18,1.33.89.89,1.33,1.95,1.33,3.18v11.34Zm16.56-11.34h-4.54c-.62,0-1.15.22-1.59.67-.44.44-.67.98-.67,1.62v9.05h-4.54v-15.85h4.54v4.51c.18-1.5.65-2.63,1.4-3.38.75-.75,1.8-1.13,3.14-1.13h2.26v4.51Zm16.53,11.34h-4.51v-11.34c0-.62-.22-1.15-.67-1.59-.44-.44-.98-.67-1.62-.67s-1.15.22-1.59.67c-.44.44-.67.97-.67,1.59v11.34h-4.54v-15.85h4.54v2.26c.09-.76.33-1.33.71-1.7s.9-.56,1.55-.56h2.28c1.23,0,2.29.44,3.18,1.33.89.89,1.33,1.95,1.33,3.18v11.34Zm9.76,0h-4.54v-15.85h4.54v15.85Zm0-18.13h-4.54v-2.26h4.54v2.26Zm18.79,18.13h-4.51v-11.34c0-.62-.22-1.15-.67-1.59-.44-.44-.98-.67-1.62-.67s-1.15.22-1.59.67c-.44.44-.67.97-.67,1.59v11.34h-4.54v-15.85h4.54v2.26c.09-.76.33-1.33.71-1.7s.9-.56,1.55-.56h2.28c1.23,0,2.29.44,3.18,1.33.89.89,1.33,1.95,1.33,3.18v11.34Zm18.81,2.26c0,1.23-.44,2.3-1.33,3.19-.89.9-1.95,1.35-3.18,1.35h-4.54c-2.66,0-4.18-1.51-4.54-4.54h2.28c.11,1.52.86,2.28,2.26,2.28h2.26c.63,0,1.17-.22,1.62-.67.44-.44.67-.98.67-1.62v-4.51c-.18,1.5-.94,2.26-2.28,2.26h-2.26c-1.23,0-2.3-.44-3.19-1.33-.9-.89-1.35-1.96-1.35-3.21v-6.8c0-1.23.45-2.29,1.35-3.18s1.96-1.33,3.19-1.33h9.05v18.11Zm26.29-2.26h-4.51v-9.05h-4.54v9.05h-4.54v-15.85c0-1.25.45-2.32,1.35-3.21.9-.89,1.96-1.33,3.19-1.33h4.54c1.23,0,2.29.45,3.18,1.35.89.9,1.33,1.96,1.33,3.19v15.85Zm13.05-8.97c1.79.96,2.83,1.76,3.1,2.39.27.63.41,1.31.41,2.04,0,1.25-.44,2.32-1.33,3.21-.89.89-1.96,1.33-3.21,1.33h-2.26c-3.03,0-4.54-1.51-4.54-4.54h2.28c.18,1.52.89,2.28,2.12,2.28.82,0,1.42-.16,1.82-.48.4-.32.6-.79.6-1.43s-1.1-1.54-3.29-2.72c-1.8-.96-2.83-1.76-3.11-2.39-.28-.63-.42-1.31-.42-2.04,0-1.25.45-2.32,1.35-3.21s1.96-1.33,3.19-1.33h2.26c2.85,0,4.36,1.5,4.54,4.51h-2.26c-.2-1.5-.91-2.26-2.15-2.26-.8,0-1.4.16-1.8.48-.4.32-.6.78-.6,1.4,0,.65,1.1,1.57,3.29,2.75Zm16.53,0c1.79.96,2.83,1.76,3.1,2.39.27.63.41,1.31.41,2.04,0,1.25-.44,2.32-1.33,3.21-.89.89-1.96,1.33-3.21,1.33h-2.26c-3.03,0-4.54-1.51-4.54-4.54h2.28c.18,1.52.89,2.28,2.12,2.28.82,0,1.42-.16,1.82-.48.4-.32.6-.79.6-1.43s-1.1-1.54-3.29-2.72c-1.8-.96-2.83-1.76-3.11-2.39-.28-.63-.42-1.31-.42-2.04,0-1.25.45-2.32,1.35-3.21.9-.89,1.96-1.33,3.19-1.33h2.26c2.85,0,4.36,1.5,4.54,4.51h-2.26c-.2-1.5-.91-2.26-2.15-2.26-.8,0-1.4.16-1.8.48-.4.32-.6.78-.6,1.4,0,.65,1.1,1.57,3.29,2.75Zm13.24,8.97h-4.54v-15.85h4.54v15.85Zm0-18.13h-4.54v-2.26h4.54v2.26Zm13.02,9.16c1.79.96,2.83,1.76,3.1,2.39.27.63.41,1.31.41,2.04,0,1.25-.44,2.32-1.33,3.21-.89.89-1.96,1.33-3.21,1.33h-2.26c-3.03,0-4.54-1.51-4.54-4.54h2.28c.18,1.52.89,2.28,2.12,2.28.82,0,1.42-.16,1.82-.48.4-.32.6-.79.6-1.43s-1.1-1.54-3.29-2.72c-1.8-.96-2.83-1.76-3.11-2.39-.28-.63-.42-1.31-.42-2.04,0-1.25.45-2.32,1.35-3.21s1.96-1.33,3.19-1.33h2.26c2.85,0,4.36,1.5,4.54,4.51h-2.26c-.2-1.5-.91-2.26-2.15-2.26-.8,0-1.4.16-1.8.48-.4.32-.6.78-.6,1.4,0,.65,1.1,1.57,3.29,2.75Zm17.78-4.62h-2.28v9.05c0,.74.24,1.31.73,1.7s.93.58,1.33.58h.22v2.26h-2.28c-1.23,0-2.29-.44-3.18-1.33-.89-.89-1.33-1.96-1.33-3.21v-9.05h-2.28v-2.26h2.28v-4.54h4.51v4.54h2.28v2.26Zm18.79,13.59h-4.51v-2.26c-.18,1.5-.94,2.26-2.28,2.26h-2.26c-1.23,0-2.3-.44-3.19-1.33-.9-.89-1.35-1.96-1.35-3.21s.45-2.29,1.35-3.18,1.96-1.33,3.19-1.33h4.54v-2.28c0-.62-.22-1.15-.67-1.59-.44-.44-.98-.67-1.62-.67h-2.26c-1.34,0-2.09.75-2.26,2.26h-2.28c.36-3.01,1.88-4.51,4.54-4.51h4.54c1.23,0,2.29.44,3.18,1.33.89.89,1.33,1.95,1.33,3.18v11.34Zm18.81,0h-4.51v-11.34c0-.62-.22-1.15-.67-1.59-.44-.44-.98-.67-1.62-.67s-1.15.22-1.59.67c-.44.44-.67.97-.67,1.59v11.34h-4.54v-15.85h4.54v2.26c.09-.76.33-1.33.71-1.7s.9-.56,1.55-.56h2.28c1.23,0,2.29.44,3.18,1.33.89.89,1.33,1.95,1.33,3.18v11.34Zm14.3-13.59h-2.28v9.05c0,.74.24,1.31.73,1.7s.93.58,1.33.58h.22v2.26h-2.28c-1.23,0-2.29-.44-3.18-1.33-.89-.89-1.33-1.96-1.33-3.21v-9.05h-2.28v-2.26h2.28v-4.54h4.51v4.54h2.28v2.26Z"/>
      <path d="m76.67,287.9c-.44.44-.67.97-.67,1.59v6.8c0,.62.22,1.15.67,1.6.44.45.97.68,1.59.68s1.17-.23,1.62-.68c.44-.45.67-.99.67-1.6v-9.05h-2.28c-.62,0-1.15.22-1.59.67Z"/>
    </g>
  </g>
  <path class="cls-3" d="m335.87,151.17h-61.63v-.26h-.27v-19.89h14.69c4.43,0,8.02-3.59,8.02-8.02v-7.77c0-3.9-3.16-7.06-7.06-7.06h-15.64v-19.27h61.21v-22.88h-84.39v22.87h0v62.48h0v2.43c0,11.36,9.21,20.57,20.57,20.57h2.88s61.63,0,61.63,0v-23.18Z"/>
  <g>
    <polygon class="cls-1" points="453.58 70.22 375.89 70.22 375.89 108.54 453.58 108.54 453.58 70.22 453.58 70.22 453.58 70.22"/>
    <path class="cls-3" d="m473.46,190.72h0c8.35,0,15.8,3.84,20.7,9.84V67.72c0-21.03-17.05-38.08-38.08-38.08h-2.5s-77.99,0-77.99,0h0s-2.5,0-2.5,0c-20.48,0-37.17,16.16-38.04,36.43h0v.19c-.02.49-.04.97-.04,1.46v2.5h.04v115.91l11.94,20.68-11.96,20.72v.66h2.79c21.03,0,38.08-17.05,38.08-38.08v-1.91h0v-39.09h77.69v50.53c4.89-5.46,11.97-8.92,19.88-8.92Zm-19.88-82.18h-77.69v-38.32h77.68s0,0,0,0v38.31Z"/>
    <path class="cls-2" d="m482.69,207.26c-2.81-1.71-6.1-2.72-9.64-2.72h0c-3.53,0-6.82,1.01-9.64,2.72-5.34,3.26-8.93,9.12-8.93,15.84h0c0,10.25,8.31,18.56,18.56,18.56h0c10.25,0,18.56-8.31,18.56-18.56h0c0-6.72-3.58-12.58-8.93-15.84Z"/>
    <path class="cls-3" d="m289.73,187.45h-48.22v.44h0v-118.32h0v-4c0-19.59-15.88-35.47-35.47-35.47h-17.4v40.12h12.29v118.06h.02v2.15c0,21.03,17.05,38.08,38.08,38.08h2.53v-.06h49.48l-12.49-21.63,11.18-19.36Z"/>
  </g>
  <polygon class="cls-2" points="323.54 189.2 301.81 189.2 290.94 208.02 301.81 226.85 323.54 226.85 334.41 208.02 323.54 189.2"/>
</svg>