<svg xmlns="http://www.w3.org/2000/svg" xmlns:xlink="http://www.w3.org/1999/xlink" version="1.1" fill="white" stroke="white" stroke-width="2" x="0px" y="0px" viewBox="0 0 68 68" style="enable-background:new 0 0 68 68;" xml:space="preserve">
  <g>
    <g>
      <path d="M45.012207,66H5.1445313c-1.4438477,0-2.6186523-1.1748047-2.6186523-2.6186523V9.9726563    c0-1.4438477,1.1748047-2.6181641,2.6186523-2.6181641H45.012207c1.4438477,0,2.6186523,1.1743164,2.6186523,2.6181641v53.4086914    C47.6308594,64.8251953,46.4560547,66,45.012207,66z M5.1445313,9.3544922c-0.3354492,0-0.6186523,0.2832031-0.6186523,0.6181641    v53.4086914C4.5258789,63.7280273,4.7978516,64,5.1445313,64H45.012207c0.3466797,0,0.6186523-0.2719727,0.6186523-0.6186523    V9.9726563c0-0.3349609-0.2832031-0.6181641-0.6186523-0.6181641H5.1445313z" />
    </g>
    <g>
      <path d="M50.8520508,60.6455078h-4.2211914c-0.5522461,0-1-0.4477539-1-1V9.9726563    c0-0.3349609-0.2832031-0.6181641-0.6186523-0.6181641H9.3657227c-0.5522461,0-1-0.4477539-1-1V4.6181641    C8.3657227,3.1743164,9.5405273,2,10.984375,2h39.8676758c1.4438477,0,2.6186523,1.1743164,2.6186523,2.6181641v53.4091797    C53.4707031,59.4711914,52.2958984,60.6455078,50.8520508,60.6455078z M47.6308594,58.6455078h3.2211914    c0.3354492,0,0.6186523-0.2832031,0.6186523-0.6181641V4.6181641C51.4707031,4.2714844,51.1987305,4,50.8520508,4H10.984375    c-0.3466797,0-0.6186523,0.2714844-0.6186523,0.6181641v2.7363281H45.012207c1.4438477,0,2.6186523,1.1743164,2.6186523,2.6181641    V58.6455078z" />
    </g>
    <!--<g>
      <path d="M17.8339844,23.6914063h-6.9985352c-1.0571289,0-1.9174805-0.8598633-1.9174805-1.9169922v-6.9858398    c0-1.0571289,0.8603516-1.9174805,1.9174805-1.9174805h6.9985352c1.0571289,0,1.9174805,0.8603516,1.9174805,1.9174805v6.9858398    C19.7514648,22.831543,18.8911133,23.6914063,17.8339844,23.6914063z M10.9179688,21.6914063h6.8334961v-6.8203125h-6.8334961    V21.6914063z" />
    </g>-->
    <g transform="translate(0, -5)">
      <path d="M17.8339844,37.6811523h-6.9985352c-1.0571289,0-1.9174805-0.8603516-1.9174805-1.9174805v-6.9853516    c0-1.0571289,0.8603516-1.9174805,1.9174805-1.9174805h6.9985352c1.0571289,0,1.9174805,0.8603516,1.9174805,1.9174805v6.9853516    C19.7514648,36.8208008,18.8911133,37.6811523,17.8339844,37.6811523z M10.9179688,35.6811523h6.8334961v-6.8203125h-6.8334961    V35.6811523z" />
    </g>
    <g>
      <path d="M17.8339844,51.6708984h-6.9985352c-1.0571289,0-1.9174805-0.8603516-1.9174805-1.9174805v-6.9858398    c0-1.0571289,0.8603516-1.9169922,1.9174805-1.9169922h6.9985352c1.0571289,0,1.9174805,0.8598633,1.9174805,1.9169922v6.9858398    C19.7514648,50.8105469,18.8911133,51.6708984,17.8339844,51.6708984z M10.9179688,49.6708984h6.8334961v-6.8203125h-6.8334961    V49.6708984z" />
    </g>
    <!--<g>
      <path d="M40.2387695,15.8833008H26.2900391c-0.5522461,0-1-0.4477539-1-1s0.4477539-1,1-1h13.9487305c0.5522461,0,1,0.4477539,1,1    S40.7910156,15.8833008,40.2387695,15.8833008z" />
    </g>-->
    <g  transform="translate(0, -5)">
      <path d="M40.2387695,29.8730469H26.2900391c-0.5522461,0-1-0.4477539-1-1s0.4477539-1,1-1h13.9487305c0.5522461,0,1,0.4477539,1,1    S40.7910156,29.8730469,40.2387695,29.8730469z" />
    </g>
    <g  transform="translate(0, -5)">
      <path d="M40.2387695,36.6689453H26.2900391c-0.5522461,0-1-0.4477539-1-1s0.4477539-1,1-1h13.9487305c0.5522461,0,1,0.4477539,1,1    S40.7910156,36.6689453,40.2387695,36.6689453z" />
    </g>
    <g>
      <path d="M30.0761719,51.7026367c-0.2558594,0-0.5117188-0.0976563-0.7070313-0.2929688l-3.7861328-3.7861328    c-0.390625-0.390625-0.390625-1.0234375,0-1.4140625s1.0234375-0.390625,1.4140625,0l3.0791016,3.0791016l7.1674805-7.1674805    c0.390625-0.390625,1.0234375-0.390625,1.4140625,0s0.390625,1.0234375,0,1.4140625l-7.8745117,7.8745117    C30.5878906,51.6049805,30.3320313,51.7026367,30.0761719,51.7026367z" />
    </g>
    <g >
      <g>
        <path d="M61.6010742,64.71875c-2.1279297,0-3.8588867-1.7373047-3.8588867-3.8730469v-6.5273438c0-0.5522461,0.4477539-1,1-1     h5.7319336c0.5522461,0,1,0.4477539,1,1v6.5273438C65.4741211,62.9814453,63.7368164,64.71875,61.6010742,64.71875z      M59.7421875,55.3183594v5.5273438c0,1.0327148,0.8339844,1.8730469,1.8588867,1.8730469     c1.0327148,0,1.8730469-0.840332,1.8730469-1.8730469v-5.5273438H59.7421875z" />
      </g>
      <g>
        <path d="M64.4741211,55.3183594h-5.7319336c-0.5522461,0-1-0.4477539-1-1V24.3769531     c0-0.3891602,0.0878906-0.8027344,0.253418-1.1972656l2.684082-6.3535156     c0.15625-0.3701172,0.519043-0.6103516,0.9204102-0.6108398c0.0004883,0,0.0004883,0,0.0009766,0     c0.4013672,0,0.7636719,0.2397461,0.9204102,0.6088867l2.6977539,6.3525391     c0.1669922,0.3974609,0.2548828,0.8110352,0.2548828,1.2001953v29.9414063     C65.4741211,54.8706055,65.0263672,55.3183594,64.4741211,55.3183594z M59.7421875,53.3183594h3.7319336V24.3769531     c0-0.1210938-0.0351563-0.2749023-0.097168-0.4208984l-1.7734375-4.1767578l-1.7646484,4.1777344     c-0.0615234,0.1450195-0.0966797,0.2988281-0.0966797,0.4199219V53.3183594z" />
      </g>
    </g>
  </g>
</svg>