<svg id="Ebene_1" data-name="Ebene 1" xmlns="http://www.w3.org/2000/svg" viewBox="0 0 709 219"><defs><style>.cls-1{fill:#203360;}.cls-2{fill:#fff;}</style></defs><path class="cls-1" d="M67.8,180.8v-15q-3.22.32-6.53.32A64.58,64.58,0,0,1,44,163.82v17H43.9v17.81H87.22A17.81,17.81,0,0,0,69.4,180.8Z"/><path class="cls-1" d="M119.73,170.15l-17.34-20.39a64.11,64.11,0,0,1-5,4.17,65.11,65.11,0,0,1-15.27,8.47l18.55,22-.06,0,10.66,14.27,4.35-3.25,14.8-11h0l15.56-11.62h0A17.81,17.81,0,0,0,121,169.19Z"/><path class="cls-2" d="M86.87,94.37a28.22,28.22,0,1,1-44.39-9.16h0l.78-.67.07,0c.62-.51,1.26-1,1.92-1.45a28.13,28.13,0,0,1,15.29-5h.65q.82,0,1.62,0L81.24,58.32a51.94,51.94,0,1,0,22.48,18Z"/><path class="cls-1" d="M45.76,82.68l.43-.27Z"/><path class="cls-1" d="M82.87,94.17l25-26.67,0,0,43-45.88H119.6L65,79.92h0L63.5,81.59a7.1,7.1,0,0,0-2.28-.17H60.9A27.94,27.94,0,0,0,44,87.87v22.48H67.65l0,0,0,0h.08v-.09L82.88,94.18Z"/><path class="cls-1" d="M61.26,50.9c1.35,0,4.09.18,6.54.4V21.45H44V53.82A53.59,53.59,0,0,1,61.26,50.9Z"/><path class="cls-1" d="M44,57.29h0l.5-.17Z"/><path class="cls-1" d="M139.21,98.08V163c5.16,1.27,9.92,5.91,13.35,10.5h0l-13.35,10v15.31h23.62V72.84Z"/><polygon class="cls-2" points="162.93 22.11 139.11 47.51 139.11 85.53 162.93 60.08 162.93 22.11"/><path class="cls-1" d="M262.89,103.26v17.85H245V103.26q0-8.92-8.93-8.93t-8.93,8.93v71.4q0,8.93,8.93,8.93t8.93-8.93V156.81h17.85v17.85q0,26.78-26.78,26.78t-26.78-26.78v-71.4q0-26.78,26.78-26.78T262.89,103.26Z"/><path class="cls-1" d="M334.32,103.26v71.4q0,26.78-26.77,26.78t-26.78-26.78v-71.4q0-26.78,26.78-26.78T334.32,103.26Zm-26.77-8.93q-8.94,0-8.93,8.93v71.4q0,8.93,8.93,8.93t8.92-8.93v-71.4Q316.47,94.34,307.55,94.33Z"/><path class="cls-1" d="M370.06,174.66q0,8.93,8.92,8.93t8.93-8.93V76.48h17.85v98.18q0,26.78-26.78,26.78t-26.77-26.78V76.48h17.85Z"/><path class="cls-1" d="M423.64,201.44v-125h26.78q26.77,0,26.78,26.78V130q0,15.18-9.82,21.43l9.82,50H459.34l-8.92-44.63h-8.93v44.63ZM441.49,94.33V139h8.93q8.93,0,8.92-8.93V103.26q0-8.92-8.92-8.93Z"/><path class="cls-1" d="M495.08,161.27h17.85v13.39q0,8.93,8.93,8.93t8.92-8.93v-8.92q0-8.93-17.85-22.32t-17.85-31.24v-8.92q0-26.78,26.78-26.78t26.77,26.78v13.39H530.78V103.26q0-8.92-8.92-8.93t-8.93,8.93v8.92q0,8.92,17.85,22.32t17.85,31.24v8.92q0,26.78-26.77,26.78t-26.78-26.78Z"/><path class="cls-1" d="M566.51,76.48h44.63V94.33H584.37V130h22.31v17.86H584.37v35.7h26.77v17.85H566.51Z"/><path class="cls-1" d="M629,161.27h17.85v13.39q0,8.93,8.92,8.93t8.93-8.93v-8.92q0-8.93-17.85-22.32T629,112.18v-8.92q0-26.78,26.77-26.78t26.78,26.78v13.39H664.73V103.26q0-8.92-8.93-8.93t-8.92,8.93v8.92q0,8.92,17.85,22.32t17.85,31.24v8.92q0,26.78-26.78,26.78T629,174.66Z"/></svg>