<?xml version="1.0" encoding="utf-8"?>
<!-- Generator: Adobe Illustrator 27.1.1, SVG Export Plug-In . SVG Version: 6.00 Build 0)  -->
<svg version="1.1" id="Ebene_1" xmlns="http://www.w3.org/2000/svg" xmlns:xlink="http://www.w3.org/1999/xlink" x="0px" y="0px"
	 viewBox="0 0 116 116" style="enable-background:new 0 0 116 116;" xml:space="preserve">
<style type="text/css">
	.st0{fill:#FFFFFF;}
	.st1{fill:#FF0000;}
</style>
<g id="icon">
	<path class="st0" d="M48.5,66c-1,0.3-2,0.6-3.1,0.6c0,0-0.1,0-0.1,0c-0.6,0-1.2-0.1-1.8-0.2L20.9,89c-1.6,1.6-2.5,3.8-2.5,6.1
		s1,4.4,2.6,6c3.3,3.1,8.6,2.9,12-0.5l1.8-1.8l-4.4-4.4c-1.2-1.2-1.9-2.9-1.9-4.6s0.7-3.4,1.9-4.6l0.9-0.9c2.1-2.1,5.7-2.4,8.2-0.8
		c0.2-1.4,0.8-2.6,1.8-3.6l0.9-0.9c1.9-1.9,4.8-2.4,7.1-1.4c0.2-1.4,0.8-2.8,1.8-3.9l0.9-0.9c0.1-0.1,0.3-0.2,0.4-0.3
		c-0.7-0.3-1.3-0.7-1.8-1.3C49.2,69.8,48.5,67.9,48.5,66L48.5,66z M27.1,97.4c-0.8,0.8-2,0.8-2.8,0c-0.8-0.8-0.8-2,0-2.8
		c0.8-0.8,2-0.8,2.8,0C27.9,95.4,27.9,96.7,27.1,97.4z"/>
	<path class="st0" d="M56.8,93.5c0.7-0.7,1-1.6,1-2.5s-0.4-1.8-1-2.5L54,85.7l-2.8-2.8l0,0l-1.8-1.8c-0.7-0.7-1.6-1-2.5-1
		s-1.8,0.3-2.5,1L43.4,82l0,0c-0.7,0.7-1,1.6-1,2.5s0.4,1.8,1,2.5l7.4,7.4c1.4,1.4,3.6,1.4,5,0L56.8,93.5L56.8,93.5z"/>
	<path class="st0" d="M64.6,80.4l-5.4-5.4c-0.7-0.7-1.6-1-2.5-1s-1.8,0.4-2.5,1l-0.9,0.9c-1.4,1.4-1.4,3.6,0,5l2.8,2.8l4.6,4.6
		c1.3,1.3,3.7,1.3,5,0l0.9-0.9c1.4-1.4,1.4-3.6,0-5L64.6,80.4L64.6,80.4L64.6,80.4z"/>
	<path class="st0" d="M45.9,98.9c0.7-0.7,1-1.6,1-2.5s-0.4-1.8-1-2.5l-7.4-7.4c-0.7-0.7-1.6-1-2.5-1s-1.8,0.4-2.5,1l-0.9,0.9
		c-0.7,0.7-1,1.6-1,2.5s0.4,1.8,1,2.5l7.4,7.4c1.4,1.4,3.6,1.4,5,0L45.9,98.9z"/>
	<path class="st0" d="M51.3,42.3c-0.5-0.5-1.2-0.7-1.9-0.4l-1.2,0.5c-4.9,1.9-10.4,0.8-14.1-3l-0.1-0.1l-2.7,2.7L12.3,61l5.5,5.5
		c0,0,0.8,6.8,5.8,15.6l16.7-16.7c-3.5-1.6-6-4.2-6.2-4.3l2.2-2c0,0,4.4,4.6,9,4.6c1.8,0.1,3.5-0.7,4.9-2.1l0,0
		c0.1-0.1,0.2-0.2,0.3-0.3l5.7-5.7l2.1,2.1l-5.7,5.7c-1.6,1.6-1.6,4.3,0,5.9c1.6,1.6,4.3,1.6,5.9,0l8.5-8.5c0.7-0.7,0.7-1.8,0-2.5
		L51.3,42.3L51.3,42.3z"/>
	<path class="st0" d="M100.3,35.3c-0.2-0.6-1-0.8-1.4-0.3L87.2,46.7c-1,1-2.7,1-3.7,0l-8.5-8.5c-1-1-1-2.7,0-3.7c0,0,2.4-2.4,5-5
		c3.2-3.2,6.7-6.7,6.7-6.7c0.4-0.4,0.3-1.2-0.3-1.4c-7.8-2.6-16.7-0.9-22.9,5.3c-4.2,4.1-6.3,9.5-6.5,15c0,0.3,0,0.7,0,1
		c0,0.4,0,0.8,0,1.2L69.2,56c1.8,1.8,1.8,4.8,0,6.7l-1,1l1.9,1.9c1.3-1.3,2.1-2.1,2.2-2.2c2.2,0.7,4.5,1.1,6.8,1.2
		c5.8,0.1,11.6-2.1,16-6.5C101.2,52,103,43.1,100.3,35.3z"/>
	<path class="st0" d="M60.7,71.3c-0.2,0.2-0.4,0.3-0.6,0.5l1.1,1.1l5.4,5.4c1.6,1.6,4.3,1.6,5.9,0c1.6-1.6,1.6-4.3,0-5.9l-6.5-6.5
		C66.1,65.9,60.7,71.3,60.7,71.3z"/>
</g>
<g>
	<path class="st1" d="M89.9,52.6c-0.3,0-0.6,0-0.9,0l-0.7,0l-1.9-3.9c-0.5-0.1-0.9-0.3-1.4-0.4l-3.7,2.2l-0.6-0.3
		c-1.7-1-3.2-2.2-4.4-3.6L75.9,46l1.4-4c-0.3-0.4-0.5-0.9-0.7-1.3l-4.2-1L72.3,39c-0.2-0.9-0.4-1.8-0.5-2.8
		c-0.1-0.9-0.1-1.9-0.1-2.8l0-0.7l3.9-1.9c0.1-0.5,0.2-0.9,0.4-1.4l-2.2-3.7l0.3-0.6c0.9-1.6,2.2-3.1,3.6-4.4l0.5-0.5l4.1,1.5
		c0.4-0.3,0.8-0.5,1.3-0.7l1-4.2l0.7-0.2c0.9-0.2,1.8-0.4,2.8-0.5c0.6-0.1,1.3-0.1,1.9-0.1c0.3,0,0.6,0,0.9,0l0.7,0l1.8,3.9
		c0.5,0.1,0.9,0.2,1.4,0.4l3.7-2.2l0.6,0.3c1.7,1,3.1,2.2,4.4,3.6l0.4,0.5l-1.4,4c0.3,0.4,0.5,0.9,0.7,1.3l4.2,1l0.2,0.6
		c0.2,0.9,0.4,1.9,0.5,2.8c0.1,1,0.1,1.9,0.1,2.8l0,0.7l-3.9,1.8c-0.1,0.5-0.2,0.9-0.4,1.4l2.2,3.7l-0.3,0.6
		c-0.9,1.6-2.1,3.1-3.6,4.4l-0.5,0.5l-4.1-1.5c-0.4,0.3-0.8,0.5-1.3,0.7l-1,4.2L94.6,52c-0.9,0.2-1.8,0.4-2.8,0.5
		C91.1,52.5,90.5,52.6,89.9,52.6L89.9,52.6z M89.9,29c-0.2,0-0.4,0-0.6,0c-2.9,0.3-5,2.9-4.7,5.8c0.3,2.7,2.5,4.8,5.3,4.8
		c0.2,0,0.4,0,0.6,0c1.4-0.1,2.7-0.8,3.6-1.9c0.9-1.1,1.3-2.5,1.2-3.9C94.9,31.1,92.6,29,89.9,29L89.9,29z"/>
	<path class="st0" d="M89.9,17.2c0.3,0,0.6,0,0.9,0l1.8,3.8c0.8,0.1,1.6,0.4,2.3,0.7l3.6-2.2c1.6,0.9,2.9,2,4.1,3.4l-1.4,3.9
		c0.4,0.7,0.8,1.4,1.1,2.1l4.1,1c0.2,0.9,0.4,1.7,0.5,2.6c0.1,0.9,0.1,1.8,0.1,2.7l-3.8,1.8c-0.2,0.8-0.4,1.6-0.7,2.3l2.2,3.6
		c-0.9,1.5-2,2.9-3.3,4.1l-3.9-1.4c-0.7,0.4-1.4,0.8-2.1,1.2l-1,4.1c-0.8,0.2-1.7,0.4-2.6,0.5c-0.6,0.1-1.2,0.1-1.8,0.1
		c-0.3,0-0.6,0-0.9,0l-1.8-3.8c-0.8-0.2-1.6-0.4-2.3-0.7l-3.6,2.2c-1.6-0.9-2.9-2-4.1-3.4l1.4-3.9c-0.4-0.7-0.8-1.4-1.2-2.1l-4.1-1
		c-0.2-0.9-0.4-1.7-0.5-2.6c-0.1-0.9-0.1-1.8-0.1-2.7l3.8-1.8c0.2-0.8,0.4-1.6,0.7-2.3l-2.2-3.6c0.9-1.5,2-2.9,3.3-4.1l3.9,1.4
		c0.7-0.5,1.4-0.8,2.1-1.1l1-4.1c0.8-0.2,1.7-0.4,2.6-0.5C88.8,17.3,89.3,17.2,89.9,17.2 M89.9,40.8c0.2,0,0.4,0,0.7,0
		c3.5-0.4,6.1-3.5,5.7-7c-0.3-3.3-3.1-5.8-6.4-5.8c-0.2,0-0.4,0-0.7,0c-3.5,0.4-6.1,3.5-5.8,7.1C83.8,38.3,86.6,40.8,89.9,40.8
		 M89.9,15c-0.7,0-1.3,0-2,0.1c-1,0.1-2,0.3-3,0.5l-1.3,0.3l-0.3,1.3l-0.7,3c-0.1,0.1-0.3,0.1-0.4,0.2l-2.9-1L78,19l-1,0.9
		c-1.5,1.4-2.8,2.9-3.8,4.7l-0.7,1.2l0.7,1.1l1.6,2.6c-0.1,0.2-0.1,0.3-0.1,0.5l-2.8,1.3L70.6,32l-0.1,1.3c-0.1,1,0,2,0.1,3
		c0.1,1,0.3,2,0.5,3l0.3,1.3l1.3,0.3l3,0.7c0.1,0.2,0.2,0.3,0.2,0.4l-1,2.9l-0.4,1.3l0.9,1c1.3,1.5,2.9,2.8,4.7,3.8l1.2,0.7l1.2-0.7
		l2.7-1.6c0.2,0,0.3,0.1,0.4,0.1l1.3,2.8l0.6,1.2l1.3,0.1c0.3,0,0.7,0,1,0c0.7,0,1.3,0,2-0.1c1-0.1,2-0.3,3-0.5l1.3-0.3l0.3-1.3
		l0.7-3c0.1-0.1,0.3-0.2,0.4-0.2l2.9,1l1.3,0.5l1-0.9c1.5-1.4,2.8-3,3.8-4.7l0.7-1.2l-0.7-1.2l-1.6-2.6c0.1-0.2,0.1-0.3,0.1-0.5
		l2.8-1.3l1.2-0.6l0.1-1.3c0.1-1,0-2-0.1-3c-0.1-1-0.3-2-0.6-3l-0.3-1.3l-1.3-0.3l-3-0.7c-0.1-0.1-0.2-0.3-0.2-0.4l1-2.9l0.4-1.3
		l-0.9-1c-1.3-1.5-2.9-2.8-4.7-3.8l-1.2-0.7l-1.2,0.7l-2.6,1.6c-0.2,0-0.3-0.1-0.5-0.1l-1.3-2.8l-0.6-1.2L90.9,15
		C90.6,15,90.2,15,89.9,15L89.9,15L89.9,15z M89.9,38.5c-2.1,0-3.9-1.6-4.1-3.7c-0.2-2.3,1.4-4.3,3.7-4.6c0.1,0,0.3,0,0.4,0
		c2.1,0,3.9,1.6,4.1,3.7c0.1,1.1-0.2,2.2-0.9,3c-0.7,0.9-1.7,1.4-2.8,1.5C90.2,38.5,90,38.5,89.9,38.5
		C89.9,38.5,89.9,38.5,89.9,38.5z"/>
</g>
</svg>
