<?xml version="1.0" encoding="utf-8"?>
<!-- Generator: Adobe Illustrator 27.1.1, SVG Export Plug-In . SVG Version: 6.00 Build 0)  -->
<svg version="1.1" id="Ebene_1" xmlns="http://www.w3.org/2000/svg" xmlns:xlink="http://www.w3.org/1999/xlink" x="0px" y="0px"
	 viewBox="0 0 116 116" style="enable-background:new 0 0 116 116;" xml:space="preserve">
<style type="text/css">
	.st0{fill:#FFFFFF;}
	.st1{fill:#FF0000;}
</style>
<g id="lyszqq.tif">
	<path class="st0" d="M54.3,57.2c1.5-4.6,2.8-4.4,4.2-4.9c0.3-0.1,0.7-0.4,0.7-0.7c0.4-1.9,0.9-3.8,1.1-5.7c0.2-2.1-0.2-4.1-0.9-6.1
		c-0.2-0.6-0.5-0.8-1.1-0.7c-2.7,0.2-5.3,0.2-7.8-0.7c-3.4-1-6.2-2.8-7.3-6.4c-0.9-2.7-1.2-5.4-1.1-8.2c0.2-3.8,0.6-7.5,1-11.2
		c0.1-0.8,0.5-1.1,1.2-0.9c3.5,0.9,6.9,2,10,3.9c3,1.9,4.8,4.6,5.7,8c1,3.7,1.5,7.4,0.8,11.1c-0.4,2.1,0.3,3.7,1.2,5.6
		c0.2-0.3,0.4-0.4,0.5-0.6c1-1.7,1.9-3.4,2.9-5c0.4-0.6,0.5-1.1,0.3-1.9C64,27.7,65,23,69.2,19.1c2.6-2.4,5.6-3.9,8.9-4.9
		c3.6-1.1,7.2-2.2,10.8-2.9c3.5-0.7,7.2-0.9,10.8-1.2c1-0.1,1.3,0.2,1.2,1.3c-0.2,1.5-0.4,3.1-0.8,4.6c-0.8,3.7-1.9,7.2-3.7,10.6
		c-2.2,4.1-4.7,8-8.7,10.7c-2.4,1.6-5.1,2.6-8,2.8c-3,0.2-6,0.3-8.9,0.3c-0.8,0-1.5-0.2-2.4-0.3c6-8.5,13.3-15.5,21.1-22.2
		c-0.1-0.1-0.1-0.2-0.2-0.3c-0.3,0.2-0.7,0.4-1,0.6c-4.6,3.1-9,6.5-13,10.3c-2.3,2.3-4.5,4.7-6.8,7.1s-3.4,5.3-4,8.4
		c-0.7,3.5-0.3,9.9-1,13.4"/>
</g>
<path class="st1" d="M74.5,89l6.2-1.2c0.4-1.3,0.7-2.6,0.9-3.9c0.2-1.4,0.3-2.7,0.3-4l-5.6-3c-0.2-1.2-0.5-2.4-0.9-3.5l3.5-5.3
	c-1.2-2.4-2.9-4.6-4.8-6.5l-6.1,1.9c-1-0.7-2-1.4-3.1-1.9l-1.2-6.2c-1.3-0.4-2.6-0.7-4-0.9c-1.3-0.2-2.7-0.3-4-0.3l-3,5.6
	c-1.2,0.2-2.4,0.5-3.5,0.9L43.9,57c-2.4,1.3-4.6,2.9-6.5,4.8l1.9,6.1c-0.7,1-1.3,2-1.9,3.1l-6.2,1.2c-0.4,1.3-0.7,2.6-0.9,3.9
	c-0.2,1.4-0.3,2.7-0.3,4l5.6,3c0.2,1.2,0.5,2.4,0.9,3.6L33,92.1c1.2,2.4,2.9,4.6,4.8,6.5l6.1-1.9c1,0.7,2,1.3,3.1,1.9l1.2,6.2
	c1.3,0.4,2.6,0.7,3.9,0.9c1.4,0.2,2.7,0.3,4,0.3l3-5.6c1.2-0.2,2.4-0.5,3.5-0.9L68,103c2.4-1.3,4.6-2.9,6.5-4.8l-1.9-6.1
	C73.3,91.1,74,90.1,74.5,89L74.5,89z M54.6,89.7c-5.3-0.8-9-5.7-8.3-11.1c0.8-5.3,5.8-9,11.1-8.3c5.3,0.8,9,5.8,8.2,11.1
	C64.8,86.8,59.9,90.5,54.6,89.7L54.6,89.7z"/>
</svg>
