<?xml version="1.0" encoding="utf-8"?>
<!-- Generator: Adobe Illustrator 27.1.1, SVG Export Plug-In . SVG Version: 6.00 Build 0)  -->
<svg version="1.1" id="Ebene_1" xmlns="http://www.w3.org/2000/svg" xmlns:xlink="http://www.w3.org/1999/xlink" x="0px" y="0px"
	 viewBox="0 0 116 116" style="enable-background:new 0 0 116 116;" xml:space="preserve">
<style type="text/css">
	.st0{fill:#FF0000;}
	.st1{fill:#FFFFFF;}
</style>
<path class="st0" d="M58.8,80.8c0.2-1.1,0.2-2.2,0.2-3.4S59,75.1,58.8,74l-5-1.8c-0.3-1-0.7-1.9-1.2-2.8l2.3-4.8
	c-1.3-1.8-2.9-3.4-4.8-4.8l-4.8,2.3c-0.9-0.5-1.8-0.9-2.8-1.2l-1.8-5c-1.1-0.2-2.2-0.2-3.4-0.2s-2.3,0.1-3.4,0.2l-1.8,5
	c-1,0.3-1.9,0.7-2.8,1.2l-4.8-2.3c-1.8,1.3-3.4,2.9-4.8,4.7l2.3,4.8c-0.5,0.9-0.9,1.8-1.2,2.8l-5,1.8c-0.2,1.1-0.3,2.2-0.3,3.3
	s0.1,2.3,0.3,3.4l5,1.8c0.3,1,0.7,1.9,1.2,2.8L20,90.1c1.3,1.8,2.9,3.4,4.8,4.8l4.8-2.3c0.9,0.5,1.8,0.9,2.8,1.2l1.8,5
	c1.1,0.2,2.2,0.3,3.4,0.3s2.3-0.1,3.4-0.3l1.8-5c1-0.3,1.9-0.7,2.8-1.2l4.8,2.3c1.8-1.3,3.4-2.9,4.8-4.8l-2.3-4.8
	c0.5-0.9,0.9-1.8,1.2-2.8L58.8,80.8L58.8,80.8z M37.4,85.5c-4.5,0-8.1-3.6-8.1-8.1s3.7-8.1,8.1-8.1s8.1,3.7,8.1,8.1
	S41.9,85.5,37.4,85.5z"/>
<path class="st1" d="M105.3,57.9c0.2-1.4,0.3-2.8,0.3-4.2s-0.1-2.9-0.3-4.2L99,47.2c-0.4-1.2-0.9-2.4-1.5-3.5l2.9-6
	c-1.7-2.3-3.7-4.3-6-6l-6,2.9c-1.1-0.6-2.3-1.1-3.6-1.5l-2.2-6.3c-1.4-0.2-2.8-0.3-4.2-0.3s-2.9,0.1-4.2,0.3L71.9,33
	c-1.2,0.4-2.4,0.9-3.5,1.5l-6-2.9c-2.3,1.7-4.3,3.7-6,6l2.9,6c-0.6,1.1-1.1,2.3-1.5,3.5l-6.3,2.2c-0.2,1.4-0.3,2.8-0.3,4.2
	s0.1,2.8,0.3,4.2l6.3,2.2c0.4,1.2,0.9,2.4,1.5,3.6l-2.9,6c1.7,2.3,3.7,4.3,6,6l6-2.9c1.1,0.6,2.3,1.1,3.5,1.5l2.2,6.3
	c1.4,0.2,2.8,0.3,4.2,0.3s2.8-0.1,4.2-0.3l2.2-6.3c1.2-0.4,2.4-0.9,3.6-1.5l6,2.9c2.3-1.7,4.3-3.7,6-6l-2.9-6
	c0.6-1.1,1.1-2.3,1.5-3.6C99,60.1,105.3,57.9,105.3,57.9z M78.3,63.9c-5.7,0-10.3-4.6-10.3-10.3s4.6-10.3,10.3-10.3
	S88.6,48,88.6,53.6S84,63.9,78.3,63.9z"/>
<path class="st1" d="M39,44.2l3.4-1.6c0-0.8,0-1.6-0.1-2.4c-0.1-0.8-0.2-1.6-0.4-2.4l-3.7-0.9c-0.3-0.7-0.6-1.3-1-1.9l1.3-3.5
	c-1.1-1.2-2.3-2.2-3.7-3l-3.2,2c-0.7-0.3-1.4-0.5-2.1-0.6l-1.6-3.4c-0.8,0-1.6,0-2.4,0.1s-1.6,0.2-2.4,0.4l-0.9,3.7
	c-0.7,0.3-1.3,0.6-1.9,1l-3.6-1.3c-1.2,1.1-2.2,2.3-3,3.7l2,3.2c-0.3,0.7-0.5,1.4-0.6,2.1L11.6,41c0,0.8,0,1.6,0.1,2.4
	c0.1,0.8,0.2,1.6,0.4,2.4l3.7,0.9c0.3,0.7,0.6,1.3,1,1.9l-1.3,3.5c1.1,1.2,2.3,2.2,3.7,3l3.2-2c0.7,0.3,1.4,0.5,2.1,0.6l1.6,3.4
	c0.8,0,1.6,0,2.4-0.1s1.6-0.2,2.4-0.4l0.9-3.7c0.7-0.3,1.3-0.6,1.9-1l3.5,1.3c1.2-1.1,2.2-2.3,3-3.7l-2-3.2
	C38.7,45.7,38.9,45,39,44.2z M27.6,47.6c-3.2,0.3-6.1-2-6.4-5.2c-0.3-3.2,2-6,5.2-6.4s6,2,6.4,5.2C33.2,44.4,30.8,47.2,27.6,47.6z"
	/>
</svg>
