<?xml version="1.0" encoding="utf-8"?>
<!-- Generator: Adobe Illustrator 27.1.1, SVG Export Plug-In . SVG Version: 6.00 Build 0)  -->
<svg version="1.1" id="Ebene_1" xmlns="http://www.w3.org/2000/svg" xmlns:xlink="http://www.w3.org/1999/xlink" x="0px" y="0px"
	 viewBox="0 0 116 116" style="enable-background:new 0 0 116 116;" xml:space="preserve">
<style type="text/css">
	.st0{fill:#FFFFFF;}
	.st1{fill:#FF0000;}
</style>
<path class="st0" d="M6.2,56.6C5.4,58.3,5,60.1,5,62.1c0,5.3,3.1,10.1,7.8,12.4c0.5-7.1,4.9-13.5,11.4-16.2c0,0,0.1,0,0.1-0.1
	l0.8-0.3c0.5-0.2,1.1,0.1,1.3,0.6c0.2,0.5,0,1-0.5,1.3c0,0,0,0,0,0c-6.6,2.3-11,8.7-11.1,15.8c0,0.3,0,0.7,0,1c0,0.3,0,0.6,0.1,0.9
	c0,0,0,0.1,0,0.1c0.1,1,0.2,2,0.5,3.2c2,7.9,8.7,13.5,16.6,14.2c0.6,0.1,1.2,0.1,1.8,0.1c0.6,0,1.3,0,1.9-0.1l1.3-0.1l-1.6,11.6
	h11.8v-0.8c0-10.1,9.3-18.3,17.7-19.3c0.1,0,0.2-0.1,0.2-0.1c0.4,0,0.8,0,1.2,0c0.1,0,0.2,0,0.3,0c0.3,0,0.6,0,0.9,0
	c0.7,0,1.4-0.1,2.1-0.2c4.5-0.7,8.3-2.8,10.9-5.5c1-1.2,1.9-2.5,2.7-4c0.8-1.9,1.1-3.9,0.8-5.9c-0.7-4.3-4.1-7.7-8.7-9.3
	c0-0.2,0-0.5,0.1-0.7c0.1-0.5,0.5-0.8,0.8-1.1c5.2,1.9,9,5.8,9.8,10.8c0.2,1.3,0.2,2.6,0,3.8c1.2-0.2,2.3-0.4,3.2-0.7l0.2-0.1l0.2,0
	c1.1,0.1,2.3,0.2,3.3,0.2c10.4,0,18.9-8.5,18.9-18.9c0-4.5-1.6-8.7-4.3-12C106.7,49,101.4,54,95,54c1.3,1.7,2.4,4.3,2,7.8
	c-0.1,0.5-0.5,0.9-1,0.9c0,0-0.1,0-0.1,0c-0.6-0.1-0.9-0.6-0.9-1.1c0.7-5.4-3.3-8.1-3.5-8.2c-0.5-0.3-0.6-0.9-0.3-1.4
	s0.9-0.6,1.4-0.3c0,0,0.1,0,0.1,0.1c0.7,0.2,1.4,0.2,2.2,0.2c6,0,10.9-5.2,10.9-11.5c0-0.4,0-0.8-0.1-1.1c0-0.2,0-0.3-0.1-0.5
	c0-0.2,0-0.3-0.1-0.5c-0.3-1.4-0.8-2.8-1.5-4.1c-1.2-2.2-3.1-4.1-5.3-5.4l-0.9-0.4h0c-0.1,0-0.3-0.1-0.4-0.2l0,0
	c-0.2,0-0.3-0.1-0.5-0.2L96.8,28c-0.1,0-0.2,0-0.3-0.1c-0.2,0-0.3-0.1-0.4-0.1h-0.2l-0.2-0.1c-0.1,0-0.3-0.1-0.3-0.1
	c-0.3,0-0.5-0.1-0.6-0.1c-0.2,0-0.5,0-0.6-0.1c0,0-0.1,0-0.1,0h-1.7l-0.1-0.1l-0.2-0.4c-2.1-3.5-5.8-5.5-9.9-5.5c-1,0-1.9,0.1-3,0.3
	l-0.6,0.1l-0.4-0.5c-3.1-3.5-7.6-5.5-12.4-5.5c-2.5,0-4.8,0.5-6.8,1.4l-0.5,0.2L58,17.1c-1.8-1.3-4.2-2-6.7-2c-2.3,0-4.7,0.7-6.7,2
	c3.9,2.1,6.6,6.5,6.7,11.5c0,0,0,0,0,0c0,0.4,0,0.7,0,0.7c0,0.5-0.5,0.9-1,0.9h-0.1c-0.6,0-1-0.5-0.9-1.1c0-0.2,0-0.5,0-0.7
	c0-0.1,0-0.1,0-0.2c-0.4-5.6-4.2-10.1-9.1-10.6c-0.1,0-0.3,0-0.4,0c-0.1,0-0.2,0-0.3,0c-0.3,0-0.5-0.1-0.8-0.1
	c-4.5,0-8.6,2.6-10.5,6.6l-0.3,0.5l-0.3,0l-0.3,0c-7.1,0.6-13,6.1-14.2,13.3L13,38.6l-0.5,0.2C8,40.9,5,45.4,5,50.4
	c0,1.7,0.4,3.5,1.2,5.4l0.2,0.4L6.2,56.6L6.2,56.6z M75.7,35.6c0.5-0.3,1.1-0.1,1.4,0.4c0,0,2,3.6,6.1,4.8c0,0,4.2,1.5,8.5-0.9
	c0.5-0.3,1.1-0.1,1.4,0.4s0.1,1.1-0.4,1.4c-2.3,1.3-4.6,1.7-6.4,1.7c-2.2,0-3.7-0.6-3.8-0.6c-4.8-1.5-7.1-5.6-7.2-5.8
	C75,36.5,75.2,35.9,75.7,35.6L75.7,35.6z M27.1,75.7c2.6,3.7,6.4,4.6,6.5,4.7c5.1,1.5,9.6-1.5,9.7-1.6c0.5-0.3,1.1-0.2,1.4,0.3
	s0.2,1.1-0.3,1.4c-0.2,0.1-3.5,2.4-7.9,2.4c-1.1,0-2.3-0.1-3.5-0.5c-0.2,0-4.6-1.1-7.6-5.4c-0.3-0.5-0.2-1.1,0.2-1.4
	C26.1,75.2,26.7,75.3,27.1,75.7L27.1,75.7z M23.5,44.7c0.1-0.2,1.6-4,5.4-6.4c3.8-2.4,7.6-2.3,7.7-2.3c0.6,0,1,0.5,1,1.1s-0.5,1-1,1
	c0,0-3.3-0.1-6.5,2c-3.2,2-4.5,5.4-4.6,5.5c0,0-1,2.4-1,4.7c0,0.6-0.4,1-1,1c0,0,0,0,0,0c-0.5,0-1-0.4-1-1
	C22.3,47.5,23.5,44.8,23.5,44.7L23.5,44.7z"/>
<g>
	<path class="st1" d="M69,59l4.4-2.1c0.1-1,0-2.1-0.1-3.1c-0.1-1.1-0.3-2.1-0.6-3.1L68,49.5c-0.4-0.9-0.8-1.7-1.3-2.5l1.6-4.6
		c-1.4-1.6-3-2.9-4.8-4l-4.2,2.6c-0.9-0.4-1.8-0.6-2.7-0.8l-2.1-4.4c-1,0-2.1,0-3.1,0.1c-1,0.1-2.1,0.3-3.1,0.6l-1.2,4.8
		c-0.9,0.4-1.7,0.8-2.5,1.3l-4.6-1.7c-1.6,1.4-2.9,3-4,4.9l2.5,4.2c-0.3,0.9-0.6,1.8-0.8,2.7l-4.4,2.1c-0.1,1,0,2.1,0.1,3.1
		c0.1,1.1,0.3,2.1,0.6,3.1l4.8,1.2c0.4,0.9,0.8,1.7,1.3,2.5l-1.6,4.6c1.4,1.6,3,2.9,4.8,4l4.2-2.6c0.9,0.3,1.8,0.6,2.7,0.8l2.1,4.4
		c1,0.1,2.1,0,3.1-0.1c1.1-0.1,2.1-0.3,3.1-0.6l1.2-4.8c0.9-0.4,1.7-0.8,2.5-1.3l4.6,1.7c1.6-1.4,2.9-3.1,3.9-4.9l-2.6-4.2
		C68.5,60.8,68.8,59.9,69,59L69,59z"/>
	<path class="st0" d="M53.3,77.5c-0.4,0-0.7,0-1.1,0l-1-0.1l-2.2-4.6c-0.5-0.1-0.9-0.3-1.4-0.4l-4.4,2.7l-0.8-0.5
		c-2-1.2-3.8-2.6-5.2-4.3l-0.6-0.7l1.7-4.8c-0.3-0.4-0.5-0.9-0.7-1.3l-5-1.2l-0.2-0.9c-0.3-1.1-0.5-2.2-0.6-3.3s-0.1-2.3-0.1-3.4
		l0-1l4.6-2.2c0.1-0.5,0.3-0.9,0.4-1.4l-2.6-4.3l0.5-0.8c1.1-2,2.6-3.7,4.3-5.3l0.7-0.7l4.8,1.7c0.4-0.3,0.9-0.5,1.3-0.7l1.2-5
		l0.9-0.2c1.1-0.3,2.2-0.5,3.3-0.6c1.1-0.1,2.2-0.1,3.4-0.1l1,0l2.2,4.6c0.5,0.1,1,0.3,1.4,0.4l4.3-2.7l0.8,0.5
		c2,1.1,3.7,2.6,5.2,4.3l0.6,0.7l-1.7,4.8c0.3,0.4,0.5,0.9,0.7,1.3l4.9,1.2l0.2,0.9c0.3,1.1,0.5,2.2,0.6,3.3
		c0.1,1.1,0.1,2.2,0.1,3.4l-0.1,1l-4.6,2.2c-0.1,0.5-0.3,1-0.4,1.4l2.6,4.3l-0.5,0.8c-1.1,1.9-2.6,3.7-4.3,5.3l-0.7,0.7l-4.8-1.7
		c-0.4,0.3-0.9,0.5-1.3,0.7l-1.2,5l-0.9,0.2c-1.1,0.3-2.2,0.5-3.3,0.6C54.9,77.5,54.1,77.5,53.3,77.5L53.3,77.5z M47.3,68.8l0.8,0.3
		c0.8,0.3,1.7,0.6,2.4,0.7l0.8,0.2l2,4.3c0.7,0,1.3,0,1.9-0.1s1.3-0.2,1.9-0.3l1.1-4.6l0.7-0.3c0.8-0.3,1.5-0.7,2.2-1.2l0.7-0.4
		l4.4,1.6c0.9-0.9,1.7-1.9,2.4-3l-2.5-4l0.3-0.8c0.3-0.8,0.6-1.6,0.7-2.4l0.2-0.8l4.3-2c0-0.6,0-1.3-0.1-1.9
		c-0.1-0.6-0.2-1.3-0.3-1.9l-4.6-1.1l-0.3-0.8c-0.3-0.8-0.7-1.5-1.2-2.2l-0.4-0.7l1.6-4.5c-0.9-0.9-1.9-1.7-3-2.4l-4,2.5l-0.8-0.3
		c-0.8-0.3-1.6-0.6-2.4-0.7l-0.8-0.2l-2-4.3c-0.7,0-1.3,0-1.9,0.1s-1.3,0.2-1.9,0.3l-1.1,4.6l-0.8,0.3c-0.7,0.3-1.5,0.7-2.2,1.2
		l-0.7,0.5l-4.5-1.6c-0.9,0.9-1.7,1.9-2.4,3l2.5,4l-0.3,0.8c-0.3,0.8-0.6,1.6-0.7,2.4l-0.2,0.8l-4.3,2c0,0.7,0,1.3,0.1,1.9
		s0.2,1.3,0.3,1.9l4.6,1.1l0.3,0.8c0.3,0.8,0.7,1.5,1.2,2.2l0.5,0.7l-1.6,4.5c0.9,0.9,1.9,1.7,3,2.4L47.3,68.8L47.3,68.8z"/>
</g>
<path class="st0" d="M54.3,63.8c-4.2,0.4-7.9-2.6-8.3-6.8s2.6-7.9,6.8-8.3c4.2-0.4,7.9,2.6,8.3,6.8C61.5,59.6,58.4,63.3,54.3,63.8z"
	/>
</svg>
