<?xml version="1.0" encoding="utf-8"?>
<!-- Generator: Adobe Illustrator 27.1.1, SVG Export Plug-In . SVG Version: 6.00 Build 0)  -->
<svg version="1.1" id="Ebene_1" xmlns="http://www.w3.org/2000/svg" xmlns:xlink="http://www.w3.org/1999/xlink" x="0px" y="0px"
	 viewBox="0 0 116 116" style="enable-background:new 0 0 116 116;" xml:space="preserve">
<style type="text/css">
	.st0{fill-rule:evenodd;clip-rule:evenodd;fill:#FFFFFF;}
	.st1{fill:#FF0000;}
	.st2{fill:#FFFFFF;}
</style>
<path class="st0" d="M93.4,59.9c-4.7-0.1-4.9-4.3-2.2-5.5c1-0.5,8.6-0.4,10.4-0.3c4.4,0.2,4.6,4.6,2.1,5.5
	C102.4,60.1,95.3,59.9,93.4,59.9L93.4,59.9z M78.8,31.2c-0.3-2.8,8.8-10,8.8-10c2-0.8,3.8,0.4,3.9,2.3c0.2,2.1-1.4,2.9-2.4,3.9
	c-0.8,0.8-5.8,6-6.5,6.2C80.6,34.2,78.9,32.8,78.8,31.2L78.8,31.2z M21.5,87c1.7-1.7,4.7-5,6.6-6.2c2.7-1.8,6.4,1.3,2.3,5.3
	c-1.5,1.5-5,5.4-6.4,6.3C21.3,94.3,17.2,91.2,21.5,87z M54.2,7.5c5.4-2.6,4.2,7.3,4.2,11c0,2.8-1.2,5.8-4.2,4.1
	c-2-1.1-1.5-4.7-1.5-7.4C52.7,12.9,51.8,8.6,54.2,7.5L54.2,7.5z M19.6,22.9c0.9-3.1,4-2.1,5.8-0.2c2.9,3,10.1,8.7,5.6,10.8
	c-2.3,1-3.5-0.7-4.4-1.6C23.3,28.5,18.9,25.4,19.6,22.9L19.6,22.9z M80.1,80.8c2.1-1.5,3.3,0,4.4,1.1c3.2,3.3,10,8.3,5.6,10.7
	c-2.6,1.5-6-3.2-7.3-4.5C79.9,85.2,76.8,83.3,80.1,80.8L80.1,80.8z M48,94.9c2.6,0,5.2,0,7.8,0c8.4,0,11.6-1.2,11.6,4.2
	c0,7.6-3.2,4.2-4.5,7.9c-1.5,4.6-2.2,3.8-7.5,3.8c-5.9,0-5.5,0.5-7.2-4.2c-0.8-2.2-1.4-0.8-3.1-2.6c-1.3-1.4-1.3-3.3-1.3-5.4
	C43.7,95.6,44.8,95,48,94.9L48,94.9z M7.4,54.4C8.3,53.9,16,54,17.7,54c5.4,0.1,4.2,4.7,2.2,5.6c-1,0.4-8.7,0.3-10.4,0.2
	C4.5,59.8,5.2,55.5,7.4,54.4L7.4,54.4z M77.3,70.4c-4.5,7.4-6,3.6-9.7,17.3c-1.2,4.2-5.5,3.4-9.8,3.3c-11.9,0-13.2,1.6-14.7-5.4
	c-2.3-10-9.5-11.8-11.9-21.2c-8.1-30.8,31.7-45,46.3-20.5C82.5,52.2,82.3,62.2,77.3,70.4L77.3,70.4z"/>
<g>
	<path class="st1" d="M70.2,60.1l4-1.9c0.1-0.9,0-1.9-0.1-2.9c-0.1-1-0.3-1.9-0.5-2.8l-4.3-1.1c-0.3-0.8-0.7-1.5-1.2-2.3l1.5-4.2
		c-1.3-1.4-2.8-2.6-4.4-3.6l-3.8,2.3c-0.8-0.3-1.6-0.6-2.5-0.7L57,39c-0.9,0-1.9,0-2.8,0.1c-1,0.1-1.9,0.3-2.8,0.5l-1.1,4.3
		c-0.8,0.3-1.5,0.8-2.3,1.2l-4.2-1.5c-1.4,1.3-2.6,2.8-3.6,4.4l2.3,3.8c-0.3,0.8-0.6,1.6-0.7,2.5l-4,1.9c-0.1,0.9,0,1.9,0.1,2.9
		c0.1,1,0.3,1.9,0.5,2.8l4.3,1.1c0.3,0.8,0.7,1.6,1.2,2.3l-1.5,4.2c1.3,1.4,2.8,2.6,4.4,3.6l3.8-2.3c0.8,0.3,1.6,0.6,2.5,0.7l1.9,4
		c0.9,0,1.9,0,2.8-0.1c1-0.1,1.9-0.3,2.8-0.5l1.1-4.3c0.8-0.3,1.5-0.8,2.3-1.2l4.2,1.5c1.4-1.3,2.6-2.8,3.6-4.4l-2.3-3.8
		C69.8,61.8,70,61,70.2,60.1L70.2,60.1z"/>
	<path class="st2" d="M56,77c-0.3,0-0.7,0-1,0l-0.9,0l-2-4.2c-0.4-0.1-0.8-0.2-1.3-0.4l-4,2.4l-0.8-0.4c-1.8-1.1-3.4-2.4-4.8-3.9
		l-0.6-0.7l1.5-4.4c-0.2-0.4-0.4-0.8-0.6-1.2l-4.5-1.1l-0.2-0.9c-0.3-1-0.4-2-0.6-3s-0.1-2.1-0.1-3.1l0-0.9l4.2-2
		c0.1-0.4,0.2-0.9,0.4-1.3l-2.4-3.9l0.4-0.8c1-1.8,2.3-3.4,3.9-4.8l0.7-0.6l4.4,1.6c0.4-0.2,0.8-0.5,1.2-0.6l1.1-4.5l0.9-0.2
		c1-0.3,2-0.4,3-0.5c1-0.1,2-0.1,3.1-0.1l0.9,0l2,4.2c0.4,0.1,0.9,0.2,1.3,0.4l3.9-2.4l0.8,0.4c1.8,1,3.4,2.3,4.8,3.9l0.6,0.7
		l-1.5,4.4c0.2,0.4,0.4,0.8,0.6,1.2l4.5,1.1l0.2,0.8c0.3,1,0.5,2,0.6,3c0.1,1,0.1,2,0.1,3.1l0,0.9l-4.2,2c-0.1,0.4-0.2,0.9-0.4,1.3
		l2.4,3.9l-0.4,0.8c-1,1.8-2.3,3.4-3.9,4.8l-0.7,0.6L64.2,71c-0.4,0.2-0.8,0.4-1.2,0.6l-1.1,4.5l-0.9,0.2c-1,0.3-2,0.4-3,0.5
		C57.4,76.9,56.7,77,56,77L56,77z M50.5,69.1l0.7,0.3c0.8,0.3,1.5,0.5,2.2,0.7l0.7,0.1L56,74c0.6,0,1.2,0,1.8-0.1
		c0.6-0.1,1.2-0.1,1.7-0.3l1-4.2l0.7-0.3c0.7-0.3,1.4-0.7,2-1.1l0.6-0.4l4,1.4c0.8-0.8,1.6-1.8,2.2-2.7l-2.2-3.7l0.3-0.7
		c0.3-0.8,0.5-1.5,0.7-2.2l0.1-0.7l3.9-1.9c0-0.6,0-1.2-0.1-1.8c-0.1-0.6-0.2-1.2-0.3-1.7l-4.2-1l-0.3-0.7c-0.3-0.7-0.6-1.3-1.1-2
		l-0.4-0.6l1.4-4.1c-0.8-0.8-1.7-1.6-2.7-2.2l-3.7,2.2l-0.7-0.3c-0.8-0.3-1.5-0.5-2.2-0.7l-0.7-0.1L56,40.4c-0.6,0-1.2,0-1.8,0.1
		s-1.2,0.1-1.7,0.3l-1,4.2l-0.7,0.3c-0.7,0.3-1.3,0.7-2,1.1l-0.6,0.4l-4.1-1.5c-0.8,0.8-1.6,1.7-2.2,2.7l2.2,3.7l-0.3,0.7
		c-0.3,0.7-0.5,1.5-0.7,2.2l-0.1,0.7l-3.9,1.9c0,0.6,0,1.2,0.1,1.8c0.1,0.6,0.2,1.2,0.3,1.7l4.2,1l0.3,0.7c0.3,0.7,0.7,1.4,1.1,2
		l0.4,0.6l-1.4,4.1c0.8,0.8,1.7,1.6,2.7,2.2L50.5,69.1L50.5,69.1z"/>
</g>
<path class="st2" d="M56.8,64.5c-3.8,0.4-7.2-2.4-7.6-6.1c-0.4-3.8,2.4-7.2,6.1-7.6c3.8-0.4,7.2,2.4,7.5,6.1
	C63.4,60.7,60.6,64.1,56.8,64.5z"/>
</svg>
