<?xml version="1.0" encoding="UTF-8"?><svg id="Ebene_1" xmlns="http://www.w3.org/2000/svg" width="116" height="116" viewBox="0 0 116 116"><path d="m93.4,59.89c-4.71-.09-4.86-4.28-2.18-5.53,1.03-.48,8.62-.38,10.43-.32,4.45.15,4.59,4.6,2.13,5.53-1.36.52-8.47.35-10.38.31Zm-14.65-28.73c-.26-2.75,8.81-9.95,8.81-9.95,1.96-.83,3.76.35,3.95,2.27.2,2.06-1.38,2.85-2.38,3.85-.84.84-5.75,5.98-6.51,6.24-1.97.67-3.7-.72-3.86-2.41Zm-57.29,55.83c1.7-1.67,4.69-4.99,6.6-6.23,2.7-1.76,6.38,1.3,2.33,5.34-1.46,1.46-5.04,5.42-6.39,6.33-2.74,1.87-6.8-1.26-2.54-5.44ZM54.18,7.5c5.37-2.63,4.22,7.3,4.22,11.02,0,2.81-1.25,5.75-4.23,4.09-2.01-1.12-1.48-4.72-1.48-7.37,0-2.35-.88-6.59,1.49-7.75Zm-34.58,15.42c.92-3.1,3.98-2.06,5.78-.23,2.91,2.97,10.15,8.68,5.55,10.75-2.27,1.02-3.47-.68-4.41-1.64-3.24-3.32-7.66-6.37-6.92-8.87Zm60.51,57.89c2.05-1.54,3.34-.02,4.39,1.08,3.17,3.31,9.97,8.32,5.62,10.74-2.63,1.46-6.02-3.24-7.32-4.54-2.88-2.86-6.02-4.78-2.69-7.29Zm-32.15,14.12c2.59-.02,5.21.02,7.8.02,8.35,0,11.58-1.24,11.58,4.22,0,7.63-3.22,4.24-4.46,7.93-1.55,4.59-2.22,3.84-7.53,3.85-5.87.01-5.5.49-7.23-4.15-.8-2.16-1.44-.85-3.1-2.63-1.35-1.45-1.29-3.32-1.29-5.4,0-3.19,1.11-3.81,4.23-3.83ZM7.43,54.39c.9-.47,8.6-.36,10.28-.35,5.36.06,4.25,4.7,2.17,5.61-.96.42-8.69.28-10.41.25-4.97-.1-4.25-4.36-2.03-5.51Zm69.89,16c-4.53,7.43-6.03,3.61-9.73,17.29-1.15,4.24-5.48,3.36-9.79,3.35-11.87,0-13.15,1.56-14.73-5.38-2.28-10.03-9.46-11.85-11.92-21.22-8.1-30.85,31.71-45,46.33-20.54,4.99,8.36,4.85,18.27-.17,26.5Z" fill="#7186b9" fill-rule="evenodd"/><path d="m69.43,60.95l3.69-1.75c.05-.87.03-1.72-.06-2.6-.09-.88-.25-1.73-.47-2.56l-3.97-.97c-.3-.73-.68-1.41-1.12-2.07l1.37-3.84c-1.16-1.3-2.52-2.41-4.03-3.29l-3.48,2.13c-.73-.3-1.48-.53-2.25-.68l-1.76-3.69c-.85-.04-1.72-.02-2.6.07-.87.09-1.73.25-2.56.46l-.97,3.97c-.73.31-1.41.69-2.06,1.12l-3.85-1.37c-1.3,1.16-2.41,2.53-3.28,4.04l2.12,3.48c-.29.73-.52,1.47-.67,2.25l-3.69,1.76c-.05.86-.03,1.72.06,2.6.09.88.25,1.72.47,2.56l3.97.96c.31.73.68,1.42,1.12,2.08l-1.36,3.84c1.16,1.3,2.52,2.4,4.03,3.29l3.49-2.13c.72.29,1.47.52,2.25.68l1.76,3.69c.85.04,1.72.02,2.6-.07.88-.09,1.73-.25,2.56-.46l.97-3.97c.73-.32,1.41-.7,2.07-1.12l3.84,1.37c1.3-1.17,2.4-2.53,3.27-4.04l-2.12-3.48c.29-.73.52-1.48.67-2.26Z" fill="red" stroke="#fff" stroke-miterlimit="10" stroke-width="2.7"/><path d="m57.21,64.94c-3.45.36-6.54-2.15-6.9-5.6-.36-3.45,2.16-6.54,5.61-6.9,3.45-.36,6.54,2.16,6.89,5.61.36,3.45-2.16,6.53-5.61,6.89Z" fill="#fff"/></svg>