<?xml version="1.0" encoding="UTF-8"?><svg id="Ebene_1" xmlns="http://www.w3.org/2000/svg" width="116" height="116" viewBox="0 0 116 116"><path d="m57.97,101.39c-24.12,0-43.69-19.57-43.64-43.61.05-23.76,19.64-43.18,43.53-43.17,24.53.01,43.84,19.21,43.81,43.56-.02,23.93-19.53,43.23-43.7,43.22Zm37.83-43.29c.05-20.67-16.86-37.69-37.5-37.76-20.97-.07-38.05,16.87-38.06,37.75,0,20.59,16.97,37.4,37.8,37.43,20.82.03,37.71-16.71,37.76-37.42Z"/><path d="m58.45,62.15c-7.3,0-13.9,4.38-16.66,11.05-1.02,2.47-.66,4.19,1.05,4.97,1.73.8,3.18-.07,4.3-2.54,2.2-4.86,5.97-7.54,11.31-7.56s9.14,2.63,11.36,7.48c.14.3.25.62.39.91.81,1.66,2.11,2.41,3.87,1.69,1.75-.72,2.1-2.15,1.57-3.92-2.06-6.89-9.45-12.09-17.21-12.09h.02Z"/><path d="m78.71,46.48c.02-3.83-2.93-6.77-6.75-6.75-3.66.02-6.67,2.96-6.73,6.58-.06,3.79,2.9,6.82,6.69,6.85,3.87.03,6.78-2.84,6.8-6.68h-.01Z"/><path d="m44.95,39.72c-3.74.02-6.75,3.15-6.68,6.95.06,3.61,3.16,6.56,6.84,6.52,3.72-.04,6.63-2.96,6.65-6.68.02-3.81-2.99-6.81-6.81-6.79Z"/></svg>