<?xml version="1.0" encoding="UTF-8"?><svg id="Ebene_1" xmlns="http://www.w3.org/2000/svg" width="116" height="116" viewBox="0 0 116 116"><g id="Uh0Xpv.tif"><g><path d="m101.56,57.77c.06,24.02-19.53,43.52-43.69,43.5-23.8-.03-43.4-19.42-43.43-42.98-.04-24.19,19.32-43.56,43.54-43.56s43.52,19.29,43.58,43.04Zm-5.7.3c.06-20.9-16.87-37.81-37.88-37.85-20.8-.04-37.82,16.87-37.87,37.62-.05,21,16.74,37.74,37.88,37.76,20.96.03,37.81-16.68,37.87-37.53Z"/><path d="m58.06,65.56c-4.08,0-8.15-.03-12.23,0-3.61.03-4.81,1.74-3.65,5.1,2.31,6.71,8.87,11.26,16.11,11.17,7.01-.08,13.49-4.86,15.61-11.52.95-3-.21-4.7-3.36-4.74-4.16-.06-8.32-.01-12.48-.02h0Z"/><path d="m37.9,46.4c0,3.68,2.94,6.62,6.64,6.63,3.65,0,6.61-3.01,6.59-6.68-.02-3.52-2.98-6.49-6.52-6.52-3.66-.04-6.7,2.95-6.71,6.58h0Z"/><path d="m71.5,39.8c-3.65,0-6.67,3.02-6.64,6.66.03,3.6,2.87,6.49,6.46,6.55,3.72.06,6.7-2.79,6.78-6.5.08-3.62-2.95-6.7-6.6-6.71Z"/></g></g></svg>